<svg
    class="icon affiliates-icon"
    width="1em"
    viewBox="0 0 13 14"
    fill="none"
    xmlns="http://www.w3.org/2000/svg"
>
    <path
        d="M9.84375 9.07812C9.1834 9.07812 8.58301 9.33964 8.14056 9.76445L5.50862 8.13386C5.65879 7.78583 5.74219 7.4025 5.74219 7C5.74219 6.5975 5.65879 6.21417 5.50859 5.86616L8.14054 4.23557C8.58301 4.66036 9.1834 4.92188 9.84375 4.92188C11.2007 4.92188 12.3047 3.8179 12.3047 2.46094C12.3047 1.10398 11.2007 0 9.84375 0C8.48679 0 7.38281 1.10398 7.38281 2.46094C7.38281 2.86155 7.47909 3.2401 7.64963 3.5747L5.07929 5.16715C4.55222 4.53321 3.75802 4.12891 2.87109 4.12891C1.28797 4.12891 0 5.41688 0 7C0 8.58312 1.28797 9.87109 2.87109 9.87109C3.75802 9.87109 4.55222 9.46679 5.07929 8.83285L7.64963 10.4253C7.47909 10.7599 7.38281 11.1384 7.38281 11.5391C7.38281 12.896 8.48679 14 9.84375 14C11.2007 14 12.3047 12.896 12.3047 11.5391C12.3047 10.1821 11.2007 9.07812 9.84375 9.07812Z"
        fill="currentColor"
    />
</svg>