<svg width="23" height="23" viewBox="0 0 23 23" fill="none" xmlns="http://www.w3.org/2000/svg">
<path d="M17.1772 15.9007L14.6433 17.1312C14.4517 17.2232 14.375 17.4532 14.467 17.6448C14.559 17.8365 14.789 17.9132 14.9807 17.8212L17.5145 16.5907C18.0627 16.3262 18.7105 16.5408 19.0133 17.089C19.1168 17.2768 19.1705 17.4877 19.1705 17.7023C19.1705 18.1738 18.9213 18.5955 18.5227 18.8025L14.973 20.6463C12.9567 21.6928 10.6222 21.7388 8.5675 20.7728L3.83717 18.4958V12.6462H6.60483C7.44433 12.6462 8.25317 12.9528 8.88567 13.5087L12.5618 16.7478C12.949 17.0583 13.0103 17.6218 12.7037 18.009C12.4123 18.3732 11.8948 18.4537 11.5038 18.1968L7.88133 15.7818C7.705 15.663 7.46733 15.7128 7.3485 15.8892C7.22967 16.0655 7.2795 16.3032 7.45583 16.422L11.0783 18.837C11.3658 19.0287 11.684 19.1207 12.0022 19.1207C12.489 19.1207 12.9682 18.906 13.2978 18.492C13.5738 18.1432 13.7003 17.71 13.6505 17.2692C13.6007 16.8283 13.3822 16.4297 13.0487 16.1652L9.384 12.9375C8.6135 12.259 7.6245 11.8833 6.59717 11.8833H3.8295V11.1167C3.8295 10.9058 3.657 10.7333 3.44617 10.7333H0.383333C0.1725 10.7333 0 10.9058 0 11.1167V19.9333C0 20.1442 0.1725 20.3167 0.383333 20.3167H3.45C3.66083 20.3167 3.83333 20.1442 3.83333 19.9333V19.3507L8.234 21.4667C9.32267 21.9803 10.4803 22.2372 11.6418 22.2372C12.903 22.2372 14.1603 21.9343 15.3218 21.3325L18.8715 19.4887C19.527 19.1475 19.9333 18.4652 19.9333 17.7062C19.9333 17.365 19.8452 17.0238 19.6803 16.721C19.1743 15.8125 18.0972 15.4598 17.1772 15.9045V15.9007Z" fill="#FBAB34"/>
<path d="M22.6172 0H5.75052C5.53969 0 5.36719 0.1725 5.36719 0.383333V10.35C5.36719 10.5608 5.53969 10.7333 5.75052 10.7333H15.353C15.3415 10.6068 15.3339 10.4803 15.3339 10.35C15.3339 10.2197 15.3415 10.0932 15.353 9.96667H6.13385V0.766667H22.2339V7.0955C22.5252 7.337 22.782 7.61683 23.0005 7.92733V0.383333C23.0005 0.1725 22.828 0 22.6172 0Z" fill="#FBAB34"/>
<path d="M19.5504 6.13333C20.2404 6.13333 20.8921 6.29816 21.4671 6.59333V3.06666C21.4671 2.85583 21.2946 2.68333 21.0837 2.68333C20.6621 2.68333 20.3171 2.33833 20.3171 1.91666C20.3171 1.70583 20.1446 1.53333 19.9337 1.53333H8.43372C8.22289 1.53333 8.05039 1.70583 8.05039 1.91666C8.05039 2.33833 7.70539 2.68333 7.28372 2.68333C7.07289 2.68333 6.90039 2.85583 6.90039 3.06666V7.66666C6.90039 7.87749 7.07289 8.04999 7.28372 8.04999C7.70539 8.04999 8.05039 8.39499 8.05039 8.81666C8.05039 9.02749 8.22289 9.19999 8.43372 9.19999H15.4947C15.9931 7.43283 17.6222 6.13333 19.5504 6.13333ZM15.3337 4.98333C15.5446 4.98333 15.7171 5.15583 15.7171 5.36666V6.89999C15.7171 7.11083 15.5446 7.28333 15.3337 7.28333H14.5671V7.66666C14.5671 7.87749 14.3946 8.04999 14.1837 8.04999C13.9729 8.04999 13.8004 7.87749 13.8004 7.66666V7.28333H13.0337C12.8229 7.28333 12.6504 7.11083 12.6504 6.89999C12.6504 6.68916 12.8229 6.51666 13.0337 6.51666H14.9504V5.74999H13.0337C12.8229 5.74999 12.6504 5.57749 12.6504 5.36666V3.83333C12.6504 3.62249 12.8229 3.44999 13.0337 3.44999H13.8004V3.06666C13.8004 2.85583 13.9729 2.68333 14.1837 2.68333C14.3946 2.68333 14.5671 2.85583 14.5671 3.06666V3.44999H15.3337C15.5446 3.44999 15.7171 3.62249 15.7171 3.83333C15.7171 4.04416 15.5446 4.21666 15.3337 4.21666H13.4171V4.98333H15.3337Z" fill="#FBAB34"/>
<path d="M19.5496 6.89999C17.6483 6.89999 16.0996 8.44866 16.0996 10.35C16.0996 12.2513 17.6483 13.8 19.5496 13.8C21.4509 13.8 22.9996 12.2513 22.9996 10.35C22.9996 8.44866 21.4509 6.89999 19.5496 6.89999ZM20.9718 11.2278C21.1213 11.3773 21.1213 11.6188 20.9718 11.7683C20.8951 11.845 20.7993 11.8795 20.6996 11.8795C20.5999 11.8795 20.5041 11.8412 20.4274 11.7683L19.5496 10.8905L18.6718 11.7683C18.5951 11.845 18.4993 11.8795 18.3996 11.8795C18.2999 11.8795 18.2041 11.8412 18.1274 11.7683C17.9779 11.6188 17.9779 11.3773 18.1274 11.2278L19.0053 10.35L18.1274 9.47216C17.9779 9.32266 17.9779 9.08116 18.1274 8.93166C18.2769 8.78216 18.5184 8.78216 18.6679 8.93166L19.5458 9.80949L20.4236 8.93166C20.5731 8.78216 20.8146 8.78216 20.9641 8.93166C21.1136 9.08116 21.1136 9.32266 20.9641 9.47216L20.0863 10.35L20.9641 11.2278H20.9718Z" fill="#FBAB34"/>
</svg>
