<svg width="1em" viewBox="0 0 11 11" fill="none" xmlns="http://www.w3.org/2000/svg">
<path d="M0.0583754 5.18571C0.136209 5.10714 0.136208 5.02857 0.214042 4.95L4.88407 0.235714C5.1954 -0.0785714 5.6624 -0.0785714 5.97374 0.235714C6.28507 0.55 6.28507 1.02143 5.97374 1.33571L2.62689 4.71429H10.2217C10.6887 4.71429 11 5.02857 11 5.5C11 5.97143 10.6887 6.28571 10.2217 6.28571H2.62689L5.97374 9.66428C6.28507 9.97857 6.28507 10.45 5.97374 10.7643C5.81807 10.9214 5.58457 11 5.4289 11C5.27323 11 5.03973 10.9214 4.88407 10.7643L0.214042 6.05C0.136208 5.97143 0.0583754 5.89286 0.0583754 5.81429C-0.0194588 5.57857 -0.0194588 5.42143 0.0583754 5.18571Z" fill="currentColor"/>
</svg>
