<svg width="1em" viewBox="0 0 11 11" fill="none" xmlns="http://www.w3.org/2000/svg">
<path d="M10.9416 5.18571C10.8638 5.10714 10.8638 5.02857 10.786 4.95L6.11593 0.235714C5.8046 -0.0785714 5.3376 -0.0785714 5.02626 0.235714C4.71493 0.55 4.71493 1.02143 5.02626 1.33571L8.37311 4.71429H0.778337C0.311335 4.71429 0 5.02857 0 5.5C0 5.97143 0.311335 6.28571 0.778337 6.28571H8.37311L5.02626 9.66428C4.71493 9.97857 4.71493 10.45 5.02626 10.7643C5.18193 10.9214 5.41543 11 5.5711 11C5.72677 11 5.96027 10.9214 6.11593 10.7643L10.786 6.05C10.8638 5.97143 10.9416 5.89286 10.9416 5.81429C11.0195 5.57857 11.0195 5.42143 10.9416 5.18571Z" fill="currentColor"/>
</svg>
