<svg width="1em" viewBox="0 0 25 25" fill="none" xmlns="http://www.w3.org/2000/svg">
<path d="M2.90687 0H22.0931L25 3.04688V6.09375V12.1875V18.9062V21.9531L22.0931 25H2.90687L0 21.9531V18.9062V12.1875V6.09375V3.04688L2.90687 0Z" fill="#50FFC0" fill-opacity="0.15"/>
<path d="M0.369565 3.19489L3.06507 0.369565H21.9349L24.6304 3.19489V6.09375V12.1875V18.9062V21.8051L21.9349 24.6304H3.06507L0.369565 21.8051V18.9062V12.1875V6.09375V3.19489Z" stroke="url(#paint0_linear_164_516)" stroke-opacity="0.35" stroke-width="0.73913"/>
<path d="M10.6484 11.2287V8.55737H5.23556C5.16526 8.55737 5.07153 8.60424 5.0481 8.67454C5.00124 8.74483 5.00124 8.81513 5.02467 8.90886C5.70421 10.3148 7.22731 11.2521 8.93788 11.2521H10.6484V11.2287Z" fill="#50FFC0"/>
<path d="M18.3575 11.4631H14.3506V13.7126H15.3816C16.7641 13.7126 18.0295 12.9628 18.5684 11.8146C18.5919 11.7443 18.5919 11.6506 18.545 11.5803C18.5216 11.51 18.4278 11.4631 18.3575 11.4631Z" fill="#50FFC0"/>
<path d="M10.6483 11.4631H6.64132C6.57103 11.4631 6.4773 11.51 6.45386 11.5803C6.407 11.6506 6.407 11.7209 6.43043 11.7912C6.96938 12.9394 8.23473 13.6892 9.61724 13.6892H10.6483V11.4631Z" fill="#50FFC0"/>
<path d="M19.9509 8.67454C19.9041 8.60424 19.8338 8.55737 19.7635 8.55737H14.3506V11.2287H16.0612C17.7483 11.2287 19.2948 10.3148 19.9744 8.88543C20.0212 8.81513 19.9978 8.74483 19.9509 8.67454Z" fill="#50FFC0"/>
<path d="M14.9598 14.1809C14.6318 13.9466 14.2568 13.7591 13.8819 13.6419V7.22146C13.8819 7.1746 13.8819 7.15116 13.8585 7.1043L12.7337 5.08911V13.431C12.5697 13.431 12.4291 13.431 12.2651 13.431V5.08911L11.1403 7.1043C11.1169 7.15116 11.1169 7.1746 11.1169 7.22146V13.6419C10.742 13.7591 10.3671 13.9466 10.039 14.1809C9.3126 14.673 10.0859 15.7509 10.8123 15.2353C11.8199 14.5089 13.2258 14.5089 14.2334 15.2353C14.6786 15.5634 15.241 15.2588 15.2644 14.7667C15.2644 14.5324 15.1707 14.3215 14.9598 14.1809Z" fill="#50FFC0"/>
<path d="M13.6713 16.7584C13.6713 16.735 13.6713 16.735 13.6713 16.7584C13.8353 16.5944 13.9056 16.407 13.9056 16.1726C13.9056 15.9383 13.8119 15.7508 13.6713 15.6103C13.6947 15.5868 13.7416 15.54 13.765 15.5165C13.3901 15.2822 12.9449 15.165 12.4997 15.165C12.0545 15.165 11.6093 15.2822 11.2343 15.5165C11.2578 15.5634 11.2812 15.5868 11.3281 15.6103C11.164 15.7743 11.0938 15.9617 11.0938 16.1726C11.0938 16.407 11.1875 16.5944 11.3281 16.7584C11.1875 16.899 11.0938 17.1099 11.0938 17.3208C11.0938 17.5317 11.164 17.7192 11.3046 17.8598C11.1875 18.0707 11.1406 18.2815 11.1406 18.5159C11.1406 19.2657 11.7499 19.8984 12.5231 19.8984C13.273 19.8984 13.9056 19.2891 13.9056 18.5159C13.9056 18.2815 13.8353 18.0472 13.7416 17.8598C13.8822 17.7192 13.9525 17.5083 13.9525 17.3208C13.9291 17.0865 13.8353 16.899 13.6713 16.7584Z" fill="#50FFC0"/>
<defs>
<linearGradient id="paint0_linear_164_516" x1="0" y1="0" x2="0" y2="25" gradientUnits="userSpaceOnUse">
<stop stop-color="#50FFC0"/>
<stop offset="1" stop-color="#136849"/>
</linearGradient>
</defs>
</svg>
