<svg width="1em" viewBox="0 0 25 25" fill="none" xmlns="http://www.w3.org/2000/svg">
<path d="M 2.9069 0 H 22.0931 L 25 3.0469 V 6.0938 V 12.1875 V 18.9062 V 21.9531 L 22.0931 25 H 2.9069 L 0 21.9531 V 18.9062 V 12.1875 V 6.0938 V 3.0469 L 2.9069 0 Z" fill="#FBAB34" fill-opacity="0.15"/>
<path d="M 0.3696 3.1949 L 3.0651 0.3696 H 21.9349 L 24.6304 3.1949 V 6.0938 V 12.1875 V 18.9062 V 21.8051 L 21.9349 24.6304 H 3.0651 L 0.3696 21.8051 V 18.9062 V 12.1875 V 6.0938 V 3.1949 Z" stroke="url(#paint0_linear_164_510)" stroke-opacity="0.35" stroke-width="0.73913"/>
<g filter="url(#filter0_d_164_510)">
<path d="M 7.2232 17.7768 C 7.1524 17.706 7.0963 17.622 7.058 17.5296 C 7.0197 17.4371 7 17.338 7 17.238 C 7 17.1379 7.0197 17.0388 7.058 16.9464 C 7.0963 16.8539 7.1524 16.7699 7.2232 16.6991 L 8.8397 15.0826 L 7.762 14.0049 C 7.6191 13.862 7.5388 13.6682 7.5388 13.4661 C 7.5388 13.264 7.6191 13.0701 7.762 12.9272 C 7.9049 12.7843 8.0988 12.704 8.3009 12.704 C 8.503 12.704 8.6968 12.7843 8.8397 12.9272 L 12.0728 16.1602 C 12.2157 16.3032 12.296 16.497 12.296 16.6991 C 12.296 16.9012 12.2157 17.095 12.0728 17.2379 C 11.9299 17.3809 11.7361 17.4612 11.5339 17.4612 C 11.3318 17.4612 11.138 17.3809 10.9951 17.238 L 9.9174 16.1602 L 8.3009 17.7768 C 8.2301 17.8476 8.1461 17.9037 8.0536 17.942 C 7.9612 17.9803 7.8621 18 7.762 18 C 7.662 18 7.5629 17.9803 7.4704 17.942 C 7.378 17.9037 7.294 17.8476 7.2232 17.7768 Z M 17.45 7 H 16.0725 C 15.9266 7 15.7867 7.0579 15.6836 7.1611 L 10.1563 12.6883 L 12.3116 14.8438 L 17.8391 9.3163 C 17.9421 9.2131 18 9.0733 18 8.9275 V 7.55 C 18 7.4041 17.9421 7.2642 17.8389 7.1611 C 17.7358 7.0579 17.5959 7 17.45 7 Z M 16.1603 15.0826 L 17.238 14.0049 C 17.3809 13.862 17.4612 13.6682 17.4612 13.4661 C 17.4612 13.264 17.3809 13.0701 17.238 12.9272 C 17.0951 12.7843 16.9012 12.704 16.6991 12.704 C 16.497 12.704 16.3032 12.7843 16.1603 12.9272 L 12.9272 16.1602 C 12.8565 16.231 12.8003 16.315 12.762 16.4075 C 12.7237 16.4999 12.704 16.599 12.704 16.6991 C 12.704 16.9012 12.7843 17.095 12.9272 17.2379 C 13.0701 17.3809 13.2639 17.4612 13.4661 17.4612 C 13.6682 17.4612 13.862 17.3809 14.0049 17.238 L 15.0826 16.1602 L 16.6991 17.7768 C 16.842 17.9197 17.0359 18 17.238 18 C 17.4401 18 17.6339 17.9197 17.7768 17.7768 C 17.9197 17.6339 18 17.4401 18 17.238 C 18 17.0359 17.9197 16.842 17.7768 16.6991 L 16.1603 15.0826 Z M 8.9275 7 H 7.55 C 7.4041 7 7.2642 7.0579 7.1611 7.1611 C 7.058 7.2642 7 7.4041 7 7.55 V 8.9275 C 7 8.9998 7.0142 9.0713 7.0419 9.138 C 7.0695 9.2048 7.11 9.2654 7.1611 9.3165 L 9.5671 11.7225 L 11.7224 9.567 L 9.3164 7.1611 C 9.2133 7.0579 9.0734 7 8.9275 7 Z" fill="#FBAB34"/>
</g>
<defs>
<filter id="filter0_d_164_510" x="0" y="0" width="41" height="41" filterUnits="userSpaceOnUse" color-interpolation-filters="sRGB">
<feFlood flood-opacity="0" result="BackgroundImageFix"/>
<feColorMatrix in="SourceAlpha" type="matrix" values="0 0 0 0 0 0 0 0 0 0 0 0 0 0 0 0 0 0 127 0" result="hardAlpha"/>
<feOffset dy="2"/>
<feGaussianBlur stdDeviation="7.5"/>
<feComposite in2="hardAlpha" operator="out"/>
<feColorMatrix type="matrix" values="0 0 0 0 0.984314 0 0 0 0 0.670588 0 0 0 0 0.203922 0 0 0 0.35 0"/>
<feBlend mode="normal" in2="BackgroundImageFix" result="effect1_dropShadow_164_510"/>
<feBlend mode="normal" in="SourceGraphic" in2="effect1_dropShadow_164_510" result="shape"/>
</filter>
<linearGradient id="paint0_linear_164_510" x1="8" y1="6" x2="8" y2="31" gradientUnits="userSpaceOnUse">
<stop stop-color="#FFC672"/>
<stop offset="1" stop-color="#A26B1B"/>
</linearGradient>
</defs>
</svg>
