<svg width="1em" viewBox="0 0 25 25" fill="none" xmlns="http://www.w3.org/2000/svg">
<path d="M2.90687 0H22.0931L25 3.04688V6.09375V12.1875V18.9062V21.9531L22.0931 25H2.90687L0 21.9531V18.9062V12.1875V6.09375V3.04688L2.90687 0Z" fill="#17E344" fill-opacity="0.15"/>
<path d="M0.369565 3.19489L3.06507 0.369565H21.9349L24.6304 3.19489V6.09375V12.1875V18.9062V21.8051L21.9349 24.6304H3.06507L0.369565 21.8051V18.9062V12.1875V6.09375V3.19489Z" stroke="#17E344" stroke-opacity="0.35" stroke-width="0.73913"/>
<path d="M17.1235 12.5608H16.1182C16.2206 12.8414 16.2766 13.1441 16.2766 13.4597V17.2594C16.2766 17.391 16.2537 17.5173 16.2121 17.6348H17.8742C18.495 17.6348 19.0001 17.1296 19.0001 16.5088V14.4374C19.0002 13.4026 18.1583 12.5608 17.1235 12.5608Z" fill="#17E344"/>
<path d="M8.72353 13.4597C8.72353 13.1441 8.77951 12.8414 8.88199 12.5608H7.87662C6.84185 12.5608 6 13.4026 6 14.4374V16.5088C6 17.1297 6.5051 17.6348 7.12597 17.6348H8.7881C8.74643 17.5173 8.72353 17.391 8.72353 17.2594V13.4597Z" fill="#17E344"/>
<path d="M13.6492 11.5828H11.3507C10.316 11.5828 9.47412 12.4246 9.47412 13.4594V17.2591C9.47412 17.4664 9.64216 17.6344 9.84945 17.6344H15.1505C15.3577 17.6344 15.5258 17.4664 15.5258 17.2591V13.4594C15.5258 12.4246 14.6839 11.5828 13.6492 11.5828Z" fill="#17E344"/>
<path d="M12.5 6.60693C11.2556 6.60693 10.2432 7.61936 10.2432 8.86383C10.2432 9.70794 10.7091 10.4452 11.3971 10.8322C11.7234 11.0158 12.0997 11.1207 12.5 11.1207C12.9004 11.1207 13.2766 11.0158 13.603 10.8322C14.291 10.4452 14.7569 9.70792 14.7569 8.86383C14.7569 7.61939 13.7445 6.60693 12.5 6.60693Z" fill="#17E344"/>
<path d="M8.53696 8.71045C7.60627 8.71045 6.84912 9.4676 6.84912 10.3983C6.84912 11.329 7.60627 12.0861 8.53696 12.0861C8.77305 12.0861 8.99786 12.0372 9.20207 11.9493C9.55515 11.7973 9.84628 11.5282 10.0264 11.1912C10.1529 10.9546 10.2248 10.6847 10.2248 10.3983C10.2248 9.46762 9.46766 8.71045 8.53696 8.71045Z" fill="#17E344"/>
<path d="M16.4632 8.71045C15.5325 8.71045 14.7754 9.4676 14.7754 10.3983C14.7754 10.6847 14.8473 10.9546 14.9738 11.1912C15.1539 11.5283 15.445 11.7973 15.7981 11.9493C16.0023 12.0372 16.2272 12.0861 16.4632 12.0861C17.3939 12.0861 18.1511 11.329 18.1511 10.3983C18.1511 9.4676 17.3939 8.71045 16.4632 8.71045Z" fill="#17E344"/>
</svg>
