<svg width="1em" viewBox="0 0 11 15" fill="none" xmlns="http://www.w3.org/2000/svg">
<path d="M5.50865 15L6.03547 12.8363C8.19134 13.2297 9.81961 13.082 10.4906 11.0657C11.0653 9.44261 10.4906 8.50823 9.34085 7.91797C10.2029 7.72137 10.8257 7.13093 10.9695 5.99986C11.2088 4.42604 10.0113 3.58992 8.33493 3.04919L8.86176 0.934294L7.61628 0.59008L7.13727 2.65572C6.8021 2.55701 6.46668 2.50811 6.13126 2.40976L6.65842 0.344214L5.41278 0L4.88596 2.11472C4.59851 2.06537 4.31116 1.96693 4.07135 1.91776L2.34712 1.47511L2.01178 2.85205L2.92183 3.0981C3.40102 3.19627 3.49663 3.54084 3.49663 3.83561L2.92183 6.24564C2.96981 6.24564 3.01788 6.24564 3.06568 6.29481C3.01788 6.29481 2.9699 6.24564 2.92183 6.24564L2.10757 9.63913C2.05959 9.78692 1.86811 10.0326 1.53277 9.93426L0.62272 9.6883L-6.10352e-05 11.1639L1.62855 11.6063C1.96389 11.705 2.25133 11.7539 2.5386 11.8522L2.01178 14.0164L3.25726 14.3607L3.78408 12.2459C4.11941 12.295 4.45466 12.3931 4.79009 12.4917L4.26344 14.6063L5.50865 15ZM5.84381 3.93413C6.56247 4.13092 8.81369 4.47513 8.47852 5.99977C8.14319 7.47515 5.93986 6.73764 5.22121 6.54068L5.84381 3.93413ZM4.21537 10.6722L4.88596 7.81963C5.74803 8.06532 8.47844 8.45888 8.09504 10.1313C7.71207 11.7541 5.07779 10.8688 4.21537 10.6722Z" fill="currentColor"/>
</svg>
