<svg
  class="icon blackjack-icon"
  width="1em"
  viewBox="0 0 14 16"
  fill="none"
  xmlns="http://www.w3.org/2000/svg"
>
  <path
    d="M13.9186 11.0877L10.3781 1.35852C10.2549 1.02169 10.0032 0.74747 9.67806 0.595991C9.35296 0.444512 8.98105 0.428138 8.64389 0.550458L5.95898 1.527H7.94172C8.51881 1.52763 9.07209 1.75715 9.48015 2.16521C9.88821 2.57328 10.1177 3.12655 10.1184 3.70364V13.911L13.1106 12.822C13.4475 12.6988 13.7217 12.4471 13.8732 12.1219C14.0247 11.7968 14.041 11.4249 13.9186 11.0877Z"
    fill="currentColor"
  />
  <path
    d="M6.25066 9.38219C6.40164 9.23099 6.48644 9.02606 6.48644 8.81238C6.48644 8.59871 6.40164 8.39377 6.25066 8.24258L4.64748 6.63916L3.0443 8.24234C2.96945 8.31718 2.91009 8.40604 2.86958 8.50382C2.82908 8.60161 2.80823 8.70642 2.80823 8.81227C2.80823 8.91811 2.82908 9.02292 2.86958 9.12071C2.91009 9.2185 2.96945 9.30735 3.0443 9.38219C3.11914 9.45704 3.20799 9.5164 3.30578 9.55691C3.40357 9.59741 3.50838 9.61826 3.61422 9.61826C3.72007 9.61826 3.82488 9.59741 3.92267 9.55691C4.02045 9.5164 4.10931 9.45704 4.18415 9.38219L4.3564 9.20994C4.39462 9.17167 4.44001 9.14131 4.48998 9.1206C4.53995 9.09988 4.59351 9.08922 4.6476 9.08922C4.70169 9.08922 4.75525 9.09988 4.80521 9.1206C4.85518 9.14131 4.90057 9.17167 4.93879 9.20994L5.11104 9.38219C5.2623 9.53306 5.46722 9.61778 5.68085 9.61778C5.89448 9.61778 6.0994 9.53306 6.25066 9.38219Z"
    fill="currentColor"
  />
  <path
    d="M7.94178 2.35107H1.35304C0.994309 2.35145 0.650374 2.49412 0.39671 2.74778C0.143046 3.00145 0.000373747 3.34538 0 3.70412V14.0578C0.000373747 14.4166 0.143046 14.7605 0.39671 15.0142C0.650374 15.2678 0.994309 15.4105 1.35304 15.4109H7.94178C8.30051 15.4105 8.64445 15.2678 8.89811 15.0142C9.15178 14.7605 9.29445 14.4166 9.29482 14.0578V3.70412C9.29445 3.34538 9.15178 3.00145 8.89811 2.74778C8.64445 2.49412 8.30051 2.35145 7.94178 2.35107ZM1.64718 5.11599C1.5931 5.11602 1.53953 5.10539 1.48956 5.08471C1.43958 5.06402 1.39418 5.03369 1.35593 4.99545C1.31769 4.9572 1.28735 4.91179 1.26667 4.86182C1.24599 4.81184 1.23536 4.75828 1.23539 4.70419V3.99826C1.23539 3.88904 1.27877 3.7843 1.356 3.70707C1.43323 3.62985 1.53797 3.58646 1.64718 3.58646C1.7564 3.58646 1.86114 3.62985 1.93837 3.70707C2.01559 3.7843 2.05898 3.88904 2.05898 3.99826V4.70419C2.05901 4.75828 2.04838 4.81184 2.0277 4.86182C2.00701 4.91179 1.97668 4.9572 1.93844 4.99545C1.90019 5.03369 1.85478 5.06402 1.80481 5.08471C1.75483 5.10539 1.70127 5.11602 1.64718 5.11599ZM5.58866 11.2929C5.69787 11.2929 5.80262 11.3363 5.87984 11.4135C5.95707 11.4908 6.00045 11.5955 6.00045 11.7047C6.00045 11.8139 5.95707 11.9187 5.87984 11.9959C5.80262 12.0731 5.69787 12.1165 5.58866 12.1165H3.70616C3.59695 12.1165 3.49221 12.0731 3.41498 11.9959C3.33775 11.9187 3.29437 11.8139 3.29437 11.7047C3.29437 11.5955 3.33775 11.4908 3.41498 11.4135C3.49221 11.3363 3.59695 11.2929 3.70616 11.2929H4.23561V10.3192C3.88722 10.4632 3.49969 10.4819 3.13905 10.3721C2.77841 10.2624 2.46697 10.031 2.25778 9.71744C2.04859 9.40385 1.95459 9.02743 1.9918 8.65231C2.029 8.27719 2.19512 7.92657 2.46183 7.66018L4.35633 5.76592C4.39453 5.72766 4.43991 5.6973 4.48985 5.67659C4.5398 5.65588 4.59334 5.64522 4.64741 5.64522C4.70148 5.64522 4.75502 5.65588 4.80497 5.67659C4.85491 5.6973 4.90029 5.72766 4.93849 5.76592L6.83299 7.66042C7.1 7.92672 7.26638 8.27739 7.30374 8.65265C7.3411 9.02791 7.24713 9.4045 7.03785 9.71822C6.82858 10.0319 6.51696 10.2633 6.15614 10.373C5.79532 10.4826 5.40764 10.4637 5.05921 10.3194V11.2929H5.58866ZM8.05943 13.7637C8.05943 13.8729 8.01605 13.9777 7.93882 14.0549C7.86159 14.1321 7.75685 14.1755 7.64764 14.1755C7.53842 14.1755 7.43368 14.1321 7.35645 14.0549C7.27923 13.9777 7.23584 13.8729 7.23584 13.7637V13.0578C7.23584 12.9486 7.27923 12.8438 7.35645 12.7666C7.43368 12.6894 7.53842 12.646 7.64764 12.646C7.75685 12.646 7.86159 12.6894 7.93882 12.7666C8.01605 12.8438 8.05943 12.9486 8.05943 13.0578V13.7637Z"
    fill="currentColor"
  />
</svg>