<svg width="1em" viewBox="0 0 15 13" fill="none" xmlns="http://www.w3.org/2000/svg">
<path d="M6.29061 12.4452C6.97589 12.4452 7.53142 11.8897 7.53142 11.2044C7.53142 10.5192 6.97589 9.96362 6.29061 9.96362C5.60533 9.96362 5.0498 10.5192 5.0498 11.2044C5.0498 11.8897 5.60533 12.4452 6.29061 12.4452Z" fill="currentColor"/>
<path d="M10.4542 12.4452C11.1395 12.4452 11.695 11.8897 11.695 11.2044C11.695 10.5192 11.1395 9.96362 10.4542 9.96362C9.76891 9.96362 9.21338 10.5192 9.21338 11.2044C9.21338 11.8897 9.76891 12.4452 10.4542 12.4452Z" fill="currentColor"/>
<path d="M0.472194 0.864337H2.19699L4.1938 7.85454L4.03718 8.16777C3.62479 8.99166 4.22344 9.96354 5.14712 9.96354H12.1081C12.3368 9.96354 12.5217 9.77855 12.5217 9.54994C12.5217 9.32133 12.3368 9.13634 12.1081 9.13634H5.14712C4.83998 9.13634 4.63924 8.81293 4.77714 8.53775L4.89146 8.30914H12.1081C12.2927 8.30914 12.4551 8.18677 12.506 8.00903L14.1604 2.21863C14.1959 2.09383 14.1709 1.95972 14.093 1.85593C14.0146 1.75253 13.8922 1.69154 13.7626 1.69154H3.29358L2.90664 0.337218C2.85574 0.159507 2.69339 0.0371094 2.50879 0.0371094H0.472194C0.243583 0.0371094 0.0585938 0.222099 0.0585938 0.45071C0.0585938 0.67932 0.243583 0.864337 0.472194 0.864337Z" fill="currentColor"/>
</svg>
