<svg width="1em" viewBox="0 0 30 30" fill="none" xmlns="http://www.w3.org/2000/svg">
<rect width="30" height="30" rx="15" fill="currentColor" fill-opacity="0.15"/>
<path d="M13.2906 21.4452C13.9759 21.4452 14.5314 20.8897 14.5314 20.2044C14.5314 19.5192 13.9759 18.9636 13.2906 18.9636C12.6053 18.9636 12.0498 19.5192 12.0498 20.2044C12.0498 20.8897 12.6053 21.4452 13.2906 21.4452Z" fill="currentColor"/>
<path d="M17.4542 21.4452C18.1395 21.4452 18.695 20.8897 18.695 20.2044C18.695 19.5192 18.1395 18.9636 17.4542 18.9636C16.7689 18.9636 16.2134 19.5192 16.2134 20.2044C16.2134 20.8897 16.7689 21.4452 17.4542 21.4452Z" fill="currentColor"/>
<path d="M7.47219 9.86434H9.19699L11.1938 16.8545L11.0372 17.1678C10.6248 17.9917 11.2234 18.9635 12.1471 18.9635H19.1081C19.3368 18.9635 19.5217 18.7786 19.5217 18.5499C19.5217 18.3213 19.3368 18.1363 19.1081 18.1363H12.1471C11.84 18.1363 11.6392 17.8129 11.7771 17.5378L11.8915 17.3091H19.1081C19.2927 17.3091 19.4551 17.1868 19.506 17.009L21.1604 11.2186C21.1959 11.0938 21.1709 10.9597 21.093 10.8559C21.0146 10.7525 20.8922 10.6915 20.7626 10.6915H10.2936L9.90664 9.33722C9.85574 9.15951 9.69339 9.03711 9.50879 9.03711H7.47219C7.24358 9.03711 7.05859 9.2221 7.05859 9.45071C7.05859 9.67932 7.24358 9.86434 7.47219 9.86434Z" fill="currentColor"/>
</svg>
