<svg
  class="icon cases-battle-icon"
  width="1em"
  viewBox="0 0 17 16"
  fill="none"
  xmlns="http://www.w3.org/2000/svg"
>
  <path
    d="M3.94646 8.93535L6.98101 11.9716L5.7677 13.1858L6.98273 14.4008L5.76856 15.615L3.64335 13.4897L1.21416 15.9189L0 14.7048L2.42919 12.2747L0.30397 10.1504L1.51813 8.93621L2.7323 10.1495L3.94646 8.93535ZM0.468835 0L3.51369 0.00257604L13.6606 10.1504L14.8756 8.93621L16.0898 10.1504L13.9655 12.2756L16.3938 14.7048L15.1796 15.9189L12.7504 13.4897L10.6252 15.615L9.41105 14.4008L10.6252 13.1858L0.471411 3.03197L0.468835 0ZM12.8827 0L15.9249 0.00257604L15.9267 3.02768L12.4465 6.50702L9.4102 3.47161L12.8827 0Z"
    fill="currentColor"
  />
</svg>