<svg width="1em" viewBox="0 0 16 15" fill="none" xmlns="http://www.w3.org/2000/svg">
<path d="M7.51169 14.2539L1.92164 11.4589C1.75618 11.3761 1.65168 11.2071 1.65168 11.0221V8.5092L4.30564 9.83619C4.78682 10.0768 5.35317 10.0768 5.83435 9.83619L5.87275 9.81699L7.51166 8.80874V14.2539H7.51169ZM8.48834 14.2539V8.80871L10.1272 9.81696L10.1656 9.83616C10.6468 10.0768 11.2132 10.0768 11.6944 9.83616L14.3483 8.50917V11.0221C14.3483 11.207 14.2438 11.3761 14.0784 11.4588L8.48834 14.2539ZM1.53642 4.42961L0.405075 3.86395C0.0432448 3.68303 -0.103427 3.24305 0.0774884 2.88122C0.148369 2.73946 0.263314 2.62451 0.405075 2.55363L4.74241 0.384983C4.94863 0.281872 5.19136 0.281872 5.39755 0.384983L7.57703 1.47472C7.42246 1.509 7.27104 1.56231 7.12641 1.63464L1.53642 4.42961ZM8.42294 1.47469L10.6024 0.38495C10.8086 0.28184 11.0514 0.28184 11.2576 0.38495L15.5949 2.5536C15.7367 2.62448 15.8516 2.73943 15.9225 2.88119C16.1034 3.24302 15.9568 3.683 15.5949 3.86392L14.4635 4.42957L8.87353 1.63455C8.7289 1.56228 8.57751 1.50897 8.42294 1.47469ZM5.39761 8.96259C5.19139 9.0657 4.94866 9.0657 4.74247 8.96259L0.405106 6.79393C0.263345 6.72305 0.1484 6.60811 0.0775191 6.46635C-0.103396 6.10452 0.0432441 5.66454 0.405106 5.48359L1.53645 4.91793L7.29332 7.79637L5.39761 8.96259ZM15.5949 5.48359C15.9568 5.66451 16.1034 6.10449 15.9225 6.46635C15.8516 6.60811 15.7367 6.72305 15.5949 6.79393L11.2576 8.96259C11.0514 9.0657 10.8086 9.0657 10.6024 8.96259L8.70674 7.79637L14.4636 4.91793L15.5949 5.48359ZM12.768 4.67378L8.00002 7.05779L3.23198 4.67378L7.56324 2.50815C7.83821 2.37067 8.16183 2.37067 8.43682 2.50815L12.768 4.67378Z" fill="#FBAB34"/>
</svg>
