<svg width="1em" viewBox="0 0 20 19" fill="none" xmlns="http://www.w3.org/2000/svg">
    <path d="M18.4914 0H1.00862C0.437069 0 0 0.437069 0 1.00862V13.4483C0 14.0198 0.437069 14.4569 1.00862 14.4569H2.68966V18.1552C2.68966 18.2897 2.79052 18.4241 2.89138 18.4578C2.925 18.4578 2.95862 18.4914 3.02586 18.4914C3.12672 18.4914 3.19397 18.4578 3.26121 18.3905L6.85862 14.4569H18.4914C19.0629 14.4569 19.5 14.0198 19.5 13.4483V1.00862C19.5 0.437069 19.0629 0 18.4914 0ZM6.38793 8.40517C5.64828 8.40517 5.0431 7.8 5.0431 7.06034C5.0431 6.32069 5.64828 5.71552 6.38793 5.71552C7.12759 5.71552 7.73276 6.32069 7.73276 7.06034C7.73276 7.8 7.12759 8.40517 6.38793 8.40517ZM9.75 8.40517C9.01034 8.40517 8.40517 7.8 8.40517 7.06034C8.40517 6.32069 9.01034 5.71552 9.75 5.71552C10.4897 5.71552 11.0948 6.32069 11.0948 7.06034C11.0948 7.8 10.4897 8.40517 9.75 8.40517ZM13.1121 8.40517C12.3724 8.40517 11.7672 7.8 11.7672 7.06034C11.7672 6.32069 12.3724 5.71552 13.1121 5.71552C13.8517 5.71552 14.4569 6.32069 14.4569 7.06034C14.4569 7.8 13.8517 8.40517 13.1121 8.40517Z" fill="currentColor"/>
</svg>
