<svg width="1em" viewBox="0 0 12 14" fill="none" xmlns="http://www.w3.org/2000/svg">
<path d="M10.9216 4.729C11.1416 4.729 11.3483 4.64669 11.5039 4.49716C11.6595 4.3476 11.7451 4.14884 11.7451 3.93735C11.7451 3.72587 11.6595 3.52711 11.5039 3.37758L10.6887 2.59389C10.5332 2.44433 10.3264 2.36201 10.1064 2.36201C9.88646 2.36201 9.6797 2.44433 9.52417 2.59389C9.22894 2.87768 9.20539 3.32504 9.45306 3.63519L9.25914 3.8099C8.5663 3.27764 7.7363 2.90385 6.82888 2.74671V2.34834C7.48129 2.32484 8.00459 1.80756 8.00459 1.17473C8.00459 0.526978 7.45643 0 6.78264 0H4.93569C4.2619 0 3.71373 0.526978 3.71373 1.17473C3.71373 1.80756 4.23703 2.32484 4.88945 2.34834V2.74671C3.97407 2.90525 3.13753 3.28423 2.44108 3.82392L2.27416 3.6572C2.54096 3.34656 2.52334 2.88449 2.22112 2.59389C2.06559 2.44433 1.85877 2.36201 1.63881 2.36201C1.41886 2.36201 1.21207 2.44433 1.05654 2.59389L0.241371 3.37758C0.0858341 3.52711 0.000175476 3.72587 0.000175476 3.93735C0.000175476 4.14884 0.0858341 4.3476 0.241371 4.49713C0.396909 4.64669 0.603731 4.729 0.823682 4.729C1.00978 4.729 1.18637 4.66985 1.33055 4.56114L1.51244 4.74284C0.816956 5.62321 0.403538 6.72025 0.403538 7.9085C0.403538 10.8004 2.85094 13.1533 5.85918 13.1533C8.86742 13.1533 11.3148 10.8004 11.3148 7.9085C11.3148 6.71198 10.8955 5.60797 10.1913 4.7245L10.3921 4.54354C10.5403 4.66354 10.7257 4.729 10.9216 4.729ZM10.3447 7.90847C10.3447 10.2862 8.33248 12.2206 5.85918 12.2206C3.38584 12.2206 1.37362 10.2862 1.37362 7.90847C1.37362 5.53072 3.38584 3.59627 5.85918 3.59627C8.33251 3.5963 10.3447 5.53072 10.3447 7.90847Z" fill="currentColor"/>
<path d="M5.85895 4.58333C3.95179 4.58333 2.4002 6.07495 2.4002 7.9084C2.4002 9.74186 3.95179 11.2334 5.85895 11.2334C7.76611 11.2334 9.31767 9.74186 9.31767 7.9084C9.31767 6.07495 7.76611 4.58333 5.85895 4.58333ZM7.69671 6.981L6.55453 7.94263C6.54609 8.1026 6.47909 8.26024 6.35201 8.38241C6.07971 8.64419 5.63819 8.64419 5.36589 8.38241C5.09358 8.1206 5.09358 7.69618 5.36589 7.4344C5.51654 7.28957 5.71893 7.22522 5.91586 7.24067L7.05756 6.27944C7.25911 6.1098 7.56549 6.12926 7.74202 6.32299C7.91851 6.51675 7.8982 6.81133 7.69671 6.981Z" fill="currentColor"/>
</svg>
