<svg width="1em" viewBox="0 0 26 26" fill="none" xmlns="http://www.w3.org/2000/svg">
<path d="M21.6464 3.26992C19.524 1.38191 16.7806 0.175676 13.7661 0V2.95585C15.9686 3.12182 17.9756 3.99969 19.5572 5.35913L21.6464 3.26992Z" fill="currentColor"/>
<path d="M23.0442 12.234H26C25.8243 9.21938 24.6181 6.47598 22.7301 4.35358L20.6409 6.44279C22.0003 8.02438 22.8782 10.0314 23.0442 12.234Z" fill="currentColor"/>
<path d="M2.95585 13.7661H0C0.175676 16.7806 1.38191 19.524 3.26992 21.6464L5.35913 19.5572C3.99969 17.9756 3.12182 15.9686 2.95585 13.7661Z" fill="currentColor"/>
<path d="M5.35913 6.44279L3.26992 4.35358C1.38191 6.47598 0.175676 9.21938 0 12.234H2.95585C3.12182 10.0314 3.99969 8.02438 5.35913 6.44279Z" fill="currentColor"/>
<path d="M12.234 2.95585V0C9.21938 0.175676 6.47598 1.38191 4.35358 3.26992L6.44279 5.35913C8.02438 3.99969 10.0314 3.12182 12.234 2.95585Z" fill="currentColor"/>
<path d="M4.35358 22.7301C6.47598 24.6181 9.21938 25.8243 12.234 26V23.0442C10.0314 22.8782 8.02438 22.0003 6.44279 20.6409L4.35358 22.7301Z" fill="currentColor"/>
<path d="M13.7661 23.0442V26C16.7806 25.8243 19.524 24.6181 21.6464 22.7301L19.5572 20.6409C17.9756 22.0003 15.9686 22.8782 13.7661 23.0442Z" fill="currentColor"/>
<path d="M20.6409 19.5572L22.7301 21.6464C24.6181 19.524 25.8243 16.7806 26 13.7661H23.0442C22.8782 15.9686 22.0003 17.9756 20.6409 19.5572Z" fill="currentColor"/>
<path d="M21.5412 13C21.5412 8.29047 17.7095 4.4588 13 4.4588C8.29047 4.4588 4.4588 8.29047 4.4588 13C4.4588 17.7095 8.29047 21.5412 13 21.5412C17.7095 21.5412 21.5412 17.7095 21.5412 13ZM14.004 17.3705H13.9846H13.766V18.353C13.766 18.7764 13.4229 19.119 13 19.119C12.5772 19.119 12.234 18.7764 12.234 18.353V17.3705L11.8837 17.3551C11.0007 17.3485 10.1708 16.9558 9.60549 16.2776C9.33482 15.9528 9.37874 15.4697 9.70405 15.199C10.0228 14.933 10.5043 14.9658 10.7826 15.2971C11.0584 15.628 11.4639 15.8353 11.8949 15.8384H13.9958C14.5737 15.8394 15.0397 15.379 15.0397 14.8022C15.0397 14.2308 14.575 13.766 14.0035 13.766C13.2619 13.766 12.7797 13.766 11.9965 13.766C10.5804 13.766 9.42828 12.6139 9.42828 11.1978C9.42828 9.78116 10.5753 8.62104 12.0154 8.62957H12.234V7.64701C12.234 7.22365 12.5772 6.88098 13 6.88098C13.4229 6.88098 13.766 7.22365 13.766 7.64701V8.62957H13.9412C15.015 8.63713 15.963 9.23488 16.4512 10.0406C16.679 10.397 16.5748 10.8705 16.2178 11.0982C15.8837 11.3114 15.4085 11.2497 15.15 10.849C14.8829 10.4313 14.4264 10.1795 13.93 10.1754H12.0042C11.4374 10.1692 10.9603 10.6144 10.9603 11.1978C10.9603 11.7693 11.4251 12.234 11.9965 12.234H14.0035C15.4196 12.234 16.5717 13.3861 16.5717 14.8022C16.5717 16.2204 15.4253 17.3705 14.004 17.3705Z" fill="currentColor"/>
</svg>
