<svg width="1em" viewBox="0 0 14 16" fill="none" xmlns="http://www.w3.org/2000/svg">
<path d="M9.62533 0.208252H1.83366C1.05449 0.208252 0.416992 0.845752 0.416992 1.62492V10.8333C0.416992 11.2228 0.735742 11.5416 1.12533 11.5416C1.51491 11.5416 1.83366 11.2228 1.83366 10.8333V2.33325C1.83366 1.94367 2.15241 1.62492 2.54199 1.62492H9.62533C10.0149 1.62492 10.3337 1.30617 10.3337 0.916585C10.3337 0.527002 10.0149 0.208252 9.62533 0.208252ZM12.4587 3.04159H4.66699C3.88783 3.04159 3.25033 3.67909 3.25033 4.45825V14.3749C3.25033 15.1541 3.88783 15.7916 4.66699 15.7916H12.4587C13.2378 15.7916 13.8753 15.1541 13.8753 14.3749V4.45825C13.8753 3.67909 13.2378 3.04159 12.4587 3.04159ZM11.7503 14.3749H5.37533C4.98574 14.3749 4.66699 14.0562 4.66699 13.6666V5.16659C4.66699 4.777 4.98574 4.45825 5.37533 4.45825H11.7503C12.1399 4.45825 12.4587 4.777 12.4587 5.16659V13.6666C12.4587 14.0562 12.1399 14.3749 11.7503 14.3749Z" fill="currentColor"/>
</svg>
