<svg width="1em" viewBox="0 0 52 46" fill="none" xmlns="http://www.w3.org/2000/svg">
<path fill-rule="evenodd" clip-rule="evenodd" d="M41.3 0H10.7C5.09 0 0.5 4.59 0.5 10.2C0.5 14.535 3.05 18.105 6.87499 19.635V10.2C6.87499 9.17999 7.38499 8.15999 7.89499 7.39499C8.40499 6.62999 9.67999 6.37499 10.7 6.37499H41.3C42.32 6.37499 43.34 6.88499 44.105 7.39499C44.87 7.90499 45.125 9.17999 45.125 10.2V19.635C48.95 18.105 51.5 14.535 51.5 10.2C51.5 4.59 46.91 0 41.3 0ZM41.3 40.8V10.2H10.7V40.8C10.7 43.605 12.995 45.9 15.8 45.9H36.2C39.005 45.9 41.3 43.605 41.3 40.8ZM23.96 23.97L22.175 25.755C21.41 26.52 20.135 26.52 19.37 25.755C18.605 24.99 18.605 23.715 19.37 22.95L22.685 19.635C24.47 17.85 27.275 17.85 29.06 19.635L32.375 22.95C33.14 23.715 33.14 24.99 32.375 25.755C31.61 26.52 30.335 26.52 29.57 25.755L27.785 23.97V34.68C27.785 35.7 27.02 36.72 25.745 36.72C24.47 36.72 23.705 35.955 23.705 34.68V23.97H23.96Z" fill="currentColor"/>
</svg>
