<svg width="1em" viewBox="0 0 18 11" fill="none" xmlns="http://www.w3.org/2000/svg">
<path d="M3.75653 8.80695C7.4536 10.1677 10.5998 10.4328 14.1651 8.31469C14.139 8.35166 13.4338 9.33709 11.5791 9.84211C11.9709 10.3472 12.5064 10.9261 12.5064 10.9261C13.695 10.9261 14.8574 10.6058 15.863 9.98992C16.6467 9.49719 17.0907 8.64725 16.9993 7.76038C16.8426 6.24524 16.4638 4.76708 15.8761 3.35054C15.1316 1.50285 13.3423 0.221755 11.2657 0.0369715C11.0828 0.0246477 10.9522 0.0246477 10.8739 0.0246477L10.6649 0.221719C13.055 0.862264 14.2435 1.86002 14.2696 1.89699C10.5996 0.147812 6.26348 0.123201 2.5673 1.82308C2.5673 1.82308 3.74276 0.726775 6.3418 0.147813L6.18508 0C5.9108 0 5.64958 0.0246475 5.37533 0.0615824C3.45541 0.369531 1.84897 1.61365 1.15674 3.32585C0.555945 4.80402 0.164137 6.35608 0.0204798 7.9328C-0.0578819 8.77042 0.36006 9.59575 1.09145 10.0762C2.05792 10.6797 3.20726 11 4.36965 11C4.36965 11 4.83983 10.421 5.31003 9.9037C3.54684 9.41096 2.82851 8.42553 2.81545 8.38856L3.14727 8.54837C3.34564 8.64396 3.54901 8.73056 3.75653 8.80695ZM5.80634 7.73573C4.95739 7.71108 4.29129 7.0336 4.31743 6.2206C4.34356 5.45689 4.99659 4.84099 5.80634 4.81634C6.65529 4.84099 7.32138 5.51847 7.29525 6.33147C7.25605 7.09522 6.61609 7.71112 5.80634 7.73573ZM11.1351 7.73573C10.2861 7.71108 9.62001 7.0336 9.64614 6.2206C9.67228 5.45689 10.3253 4.84099 11.1351 4.81634C11.984 4.84099 12.6501 5.51847 12.624 6.33147C12.5979 7.09522 11.9448 7.71112 11.1351 7.73573Z" fill="currentColor"/>
</svg>
