<svg width="1em" viewBox="0 0 17 17" fill="none" xmlns="http://www.w3.org/2000/svg">
<path d="M13.4583 8.49728C13.0666 8.49728 12.75 8.81466 12.75 9.20558V14.8723C12.75 15.2626 12.4326 15.5806 12.0417 15.5806H2.125C1.73396 15.5806 1.41671 15.2626 1.41671 14.8723V4.95557C1.41671 4.5653 1.73396 4.24728 2.125 4.24728H7.79172C8.18342 4.24728 8.50001 3.9299 8.50001 3.53899C8.50001 3.14794 8.18342 2.83057 7.79172 2.83057H2.125C0.953424 2.83057 0 3.78399 0 4.95557V14.8723C0 16.0439 0.953424 16.9973 2.125 16.9973H12.0417C13.2133 16.9973 14.1667 16.0439 14.1667 14.8723V9.20558C14.1667 8.81388 13.85 8.49728 13.4583 8.49728Z" fill="currentColor"/>
<path d="M6.6413 7.85201C6.59176 7.90156 6.55842 7.96459 6.54429 8.03256L6.04352 10.5373C6.02017 10.6534 6.057 10.7731 6.14053 10.8574C6.20785 10.9247 6.29851 10.9608 6.39137 10.9608C6.41394 10.9608 6.43741 10.9587 6.46076 10.9538L8.96475 10.453C9.03414 10.4387 9.09717 10.4055 9.14607 10.3559L14.7504 4.75154L12.2464 2.24768L6.6413 7.85201Z" fill="currentColor"/>
<path d="M16.4815 0.515792C15.7909 -0.17486 14.6675 -0.17486 13.9775 0.515792L12.9972 1.49606L15.5012 4.00005L16.4815 3.01965C16.8158 2.68606 17 2.24119 17 1.76804C17 1.2949 16.8158 0.850028 16.4815 0.515792Z" fill="currentColor"/>
</svg>
