<svg width="1em" viewBox="0 0 23 24" fill="none" xmlns="http://www.w3.org/2000/svg">
<path d="M9.47062 13.5826C9.47062 13.2011 9.16774 12.8917 8.79415 12.8917H8.55788L6.2411 7.55072C5.79639 7.67015 5.34839 7.77479 4.89781 7.86529L7.07817 12.8917H2.39253L4.54334 7.93337C4.01975 8.02935 3.49301 8.10613 2.96401 8.16292L0.912769 12.8917H0.676501C0.302909 12.8917 3.02129e-05 13.2011 3.02129e-05 13.5826C-0.00998155 15.9569 2.47005 17.5505 4.73532 17.4975C7.00015 17.5511 9.48131 15.9563 9.47062 13.5826Z" fill="#FBAB34"/>
<path d="M22.3235 12.8917H22.0872L20.036 8.16292C19.507 8.10613 18.9802 8.02935 18.4566 7.93337L20.6074 12.8917H15.9218L18.1021 7.86529C17.6516 7.77484 17.2035 7.67015 16.7589 7.55072L14.442 12.8917H14.2058C13.8322 12.8917 13.5293 13.2011 13.5293 13.5826C13.5293 14.6617 14.0442 15.665 14.9792 16.4077C16.723 17.8506 19.8061 17.8507 21.5499 16.4076C22.4849 15.665 22.9998 14.6617 22.9998 13.5826C22.9999 13.2011 22.6971 12.8917 22.3235 12.8917Z" fill="#FBAB34"/>
<path d="M0.677086 6.90413C2.53359 6.90413 4.38198 6.6468 6.17093 6.13939C9.65728 5.1503 13.3428 5.1503 16.8292 6.13939C18.6181 6.64685 20.4664 6.90413 22.3229 6.90413C23.0903 6.90413 23.2648 5.80575 22.5368 5.55791H22.5368C20.781 4.96018 19.0704 4.19171 17.4525 3.27373L16.3837 2.66738C15.091 1.93392 13.6488 1.50065 12.1765 1.39864V0.686494C12.1432 -0.229177 10.8565 -0.228486 10.8235 0.686494V1.39864C9.35111 1.50065 7.90896 1.93392 6.61623 2.66738L5.5474 3.27373C3.92956 4.19171 2.21899 4.96018 0.463141 5.55791H0.463096C-0.264787 5.80575 -0.0902573 6.90413 0.677086 6.90413Z" fill="#FBAB34"/>
<path d="M14.2058 20.8137H8.79406C7.67324 20.8137 6.76465 21.7416 6.76465 22.8863C6.76465 23.2678 7.06753 23.5771 7.44112 23.5771H15.5588C15.9324 23.5771 16.2352 23.2678 16.2352 22.8863C16.2352 21.7416 15.3266 20.8137 14.2058 20.8137Z" fill="#FBAB34"/>
<path d="M10.8232 19.4319H12.1762V6.79224C11.7257 6.77511 11.2737 6.77511 10.8232 6.79224V19.4319Z" fill="#FBAB34"/>
</svg>
