<svg width="1em" viewBox="0 0 14 17" fill="none" xmlns="http://www.w3.org/2000/svg">
<path fill-rule="evenodd" clip-rule="evenodd" d="M14.0001 2.68565V4.43694H12.7645C11.389 4.43829 10.0389 4.06592 8.85856 3.35962L7.29619 2.41504C7.20532 2.36008 7.10114 2.33103 6.99494 2.33103C6.88875 2.33103 6.78457 2.36008 6.6937 2.41504L5.13643 3.35451C3.95578 4.0601 2.60593 4.43242 1.2305 4.43183H4.20255e-10V2.68565C-5.85397e-06 2.5308 0.0611548 2.38222 0.170168 2.27226C0.279181 2.16229 0.427221 2.09983 0.582061 2.09848H1.2356C2.71666 2.09884 4.16966 1.69454 5.43768 0.929255L7.00005 0L8.55732 0.934361C9.82616 1.69774 11.2786 2.10189 12.7594 2.10359H13.418C13.5716 2.10621 13.7181 2.16838 13.8267 2.27698C13.9353 2.38557 13.9975 2.5321 14.0001 2.68565Z" fill="currentColor"/>
<path fill-rule="evenodd" clip-rule="evenodd" d="M12.7645 5.61634C11.1777 5.61559 9.62102 5.18318 8.26118 4.36542L7.00005 3.59955L5.73892 4.3501C4.38032 5.17252 2.82373 5.6102 1.2356 5.61634H0V7.14808C0.00357598 8.92056 0.511515 10.6554 1.46446 12.1499C2.41741 13.6445 3.77601 14.8369 5.38151 15.588L7.00005 16.3385L8.60838 15.588C10.2162 14.8389 11.5772 13.6472 12.5321 12.1524C13.487 10.6577 13.9962 8.9218 14.0001 7.14808V5.61634H12.7645ZM7.29619 10.7221C7.18776 10.8264 7.04322 10.8846 6.89283 10.8846C6.74244 10.8846 6.59789 10.8264 6.48947 10.7221L4.85561 9.08828L5.67765 8.26625L6.90304 9.48653L8.94536 7.44421L9.76739 8.26625L7.29619 10.7221Z" fill="currentColor"/>
</svg>
