<svg width="12" height="21" viewBox="0 0 12 21" fill="none" xmlns="http://www.w3.org/2000/svg">
<path d="M6 20.363C7.10457 20.363 8 19.4675 8 18.363C8 17.2584 7.10457 16.363 6 16.363C4.89543 16.363 4 17.2584 4 18.363C4 19.4675 4.89543 20.363 6 20.363Z" fill="#FBAB34"/>
<path d="M6 0.718506C2.6916 0.718506 0 3.22497 0 6.30581C0 7.07727 0.67155 7.70263 1.5 7.70263C2.32845 7.70263 3 7.07727 3 6.30581C3 4.76539 4.3458 3.51216 6 3.51216C7.6542 3.51216 9 4.76539 9 6.30581C9 7.84623 7.6542 9.09946 6 9.09946C5.17155 9.09946 4.5 9.72482 4.5 10.4963V12.5661C4.5 13.3376 5.17155 13.963 6 13.963C6.82845 13.963 7.5 13.3376 7.5 12.5661V11.7163C10.085 11.0945 12 8.90453 12 6.30581C12 3.22497 9.3084 0.718506 6 0.718506Z" fill="#FBAB34"/>
</svg>
