<svg
  class="icon gamepad-icon"
  width="1em"
  viewBox="0 0 20 13"
  fill="none"
  xmlns="http://www.w3.org/2000/svg"
>
  <path
    d="M16.2561 5.80579C16.9265 5.82106 17.4562 6.31679 17.4387 6.91356C17.4208 7.50853 16.863 7.97867 16.1926 7.96251C15.5219 7.94724 14.9924 7.4515 15.0094 6.85608C15.0266 6.26066 15.5849 5.79075 16.2561 5.80579ZM5.1631 3.14324C5.59924 3.14324 5.90762 3.41693 5.90762 3.7573V4.78738H7.06804C7.4503 4.78738 7.75868 5.06107 7.75868 5.44814C7.75868 5.83408 7.4503 6.10777 7.06804 6.10777H5.90762V7.1392C5.90762 7.478 5.59924 7.75168 5.1631 7.75168C4.72696 7.75168 4.41883 7.478 4.41883 7.1392V6.10777H3.2579C2.87615 6.10777 2.56776 5.83408 2.56776 5.44814C2.56776 5.06107 2.87615 4.78738 3.2579 4.78738H4.41883V3.7573C4.41883 3.41693 4.72696 3.14324 5.1631 3.14324ZM14.2345 2.93287C14.9054 2.94903 15.4349 3.44387 15.4179 4.04019C15.3997 4.63538 14.8406 5.10575 14.1702 5.08913C13.4998 5.07409 12.9696 4.57813 12.987 3.98316C13.0053 3.38752 13.5626 2.91738 14.2345 2.93287ZM4.93769 0C2.45949 0 1.12198 1.38213 0.912258 3.07656L0.0179703 10.3206C-0.190233 12.0141 1.45414 13 2.70184 13C5.15272 13 7.13964 9.45689 8.465 9.45689H11.5283C12.854 9.45689 14.8394 13 17.2915 13C18.5392 13 20.2296 12.0094 19.9741 10.3206L19.0796 3.07656C18.8238 1.38819 17.5326 0 15.0554 0C13.2357 0 12.8431 0.877189 10.8273 0.877189H9.16601C7.15026 0.877189 6.75612 0 4.93769 0Z"
    fill="currentColor"
  />
</svg>