<svg width="1em" viewBox="0 0 38 38" fill="none" xmlns="http://www.w3.org/2000/svg">
<rect width="38" height="38" rx="19" fill="currentColor" fill-opacity="0.15"/>
<path d="M12.0187 21.6917H17.8223C17.9345 21.6922 18.0374 21.629 18.0876 21.5286C18.3215 21.0602 18.9792 19.7454 18.9792 19.7454C19.0258 19.6533 19.0212 19.5436 18.9671 19.4556C18.913 19.3677 18.8171 19.3142 18.7138 19.3142H12.9103C12.7977 19.3143 12.6949 19.3779 12.6446 19.4786L11.753 21.2617C11.707 21.3538 11.7119 21.4632 11.7661 21.5508C11.8202 21.6384 11.9157 21.6917 12.0187 21.6917Z" fill="currentColor"/>
<path d="M13.137 27.6357H19.378V20.2761L18.5373 21.9594C18.4368 22.1607 18.2306 22.2875 18.0056 22.2863H12.8398V27.3385C12.8398 27.5027 12.9729 27.6357 13.137 27.6357Z" fill="currentColor"/>
<path d="M26.5109 27.3385V22.2863H21.3451C21.1197 22.2872 20.9134 22.1597 20.8134 21.9576L19.9727 20.2761V27.6357H26.2137C26.3778 27.6357 26.5109 27.5027 26.5109 27.3385Z" fill="currentColor"/>
<path d="M26.4409 19.3142H20.6374C20.5344 19.3143 20.4388 19.3676 20.3847 19.4552C20.3306 19.5428 20.3256 19.6522 20.3717 19.7443L21.2632 21.5274C21.3135 21.6281 21.4164 21.6917 21.5289 21.6918H27.3325C27.4354 21.6917 27.531 21.6384 27.5851 21.5508C27.6392 21.4632 27.6442 21.3538 27.5982 21.2617L26.7066 19.4786C26.6563 19.3779 26.5534 19.3143 26.4409 19.3142Z" fill="currentColor"/>
<path d="M17.2744 17.1822C17.2316 17.3812 17.3069 17.5871 17.4679 17.7116C17.629 17.8361 17.8472 17.8571 18.029 17.7656L19.4353 16.9964C19.5848 16.9141 19.766 16.9141 19.9155 16.9964L21.3218 17.765C21.5037 17.8565 21.7218 17.8355 21.8829 17.711C22.0439 17.5865 22.1192 17.3806 22.0764 17.1816L21.8116 15.5767C21.7813 15.3979 21.838 15.2153 21.9643 15.0852L23.0806 13.9538C23.2256 13.8076 23.2786 13.5936 23.2185 13.3967C23.1584 13.1998 22.9948 13.0518 22.7929 13.0117L21.2368 12.7763C21.0646 12.7487 20.9173 12.6373 20.8439 12.4791L20.1423 11C20.0605 10.8152 19.8774 10.696 19.6754 10.696C19.4733 10.696 19.2903 10.8152 19.2085 11L18.5068 12.4791C18.4334 12.6373 18.2862 12.7487 18.1139 12.7763L16.5579 13.0114C16.3559 13.0516 16.1924 13.1995 16.1323 13.3964C16.0722 13.5933 16.1252 13.8074 16.2702 13.9535L17.387 15.0852C17.5134 15.2153 17.5701 15.3979 17.5398 15.5767L17.2744 17.1822Z" fill="currentColor"/>
<path d="M12.8845 16.4567C12.9477 16.5217 12.976 16.6128 12.9609 16.7022L12.8283 17.5046C12.8071 17.6041 12.8448 17.7069 12.9253 17.7691C13.0058 17.8313 13.1149 17.8418 13.2058 17.7961L13.9101 17.4122C13.9849 17.3711 14.0754 17.3711 14.1502 17.4122L14.8534 17.7964C14.9443 17.8421 15.0533 17.8316 15.1338 17.7694C15.2143 17.7072 15.252 17.6044 15.2308 17.5049L15.0983 16.7025C15.0831 16.6132 15.1115 16.522 15.1747 16.457L15.7328 15.8924C15.8054 15.8194 15.832 15.7123 15.8019 15.6138C15.7718 15.5153 15.69 15.4413 15.589 15.4213L14.8109 15.3024C14.7248 15.2887 14.6512 15.233 14.6145 15.1538L14.2638 14.415C14.223 14.3224 14.1313 14.2627 14.0302 14.2627C13.929 14.2627 13.8374 14.3224 13.7966 14.415L13.4447 15.1535C13.408 15.2327 13.3344 15.2884 13.2483 15.3021L12.4702 15.421C12.3692 15.441 12.2874 15.515 12.2573 15.6135C12.2272 15.712 12.2538 15.819 12.3264 15.8921L12.8845 16.4567Z" fill="currentColor"/>
<path d="M25.0884 14.4143L24.7377 15.1537C24.701 15.2328 24.6274 15.2885 24.5413 15.3023L23.7632 15.4211C23.6622 15.4411 23.5803 15.5151 23.5503 15.6136C23.5202 15.7121 23.5467 15.8192 23.6194 15.8922L24.1775 16.4568C24.2407 16.5218 24.269 16.613 24.2539 16.7023L24.1213 17.5047C24.1001 17.6042 24.1378 17.7071 24.2183 17.7693C24.2988 17.8314 24.4079 17.8419 24.4988 17.7963L25.2031 17.4123C25.2779 17.3713 25.3684 17.3713 25.4432 17.4123L26.1464 17.7966C26.2373 17.8423 26.3463 17.8318 26.4268 17.7696C26.5073 17.7074 26.545 17.6046 26.5238 17.5051L26.3913 16.7027C26.3761 16.6134 26.4045 16.5222 26.4677 16.4572L27.0258 15.8925C27.0984 15.8195 27.125 15.7125 27.0949 15.6139C27.0648 15.5154 26.983 15.4415 26.882 15.4215L26.1039 15.3026C26.0178 15.2888 25.9442 15.2332 25.9075 15.154L25.5568 14.4152C25.5165 14.3218 25.4246 14.2613 25.3229 14.2611C25.2212 14.2609 25.1291 14.3211 25.0884 14.4143Z" fill="currentColor"/>
<path d="M17.5951 11.5874C17.6983 11.5879 17.7945 11.5348 17.849 11.4471C17.9036 11.3594 17.9087 11.2497 17.8625 11.1573L17.5653 10.563C17.492 10.4161 17.3134 10.3565 17.1665 10.4298C17.0196 10.5032 16.96 10.6817 17.0333 10.8287L17.3305 11.423C17.3807 11.5233 17.483 11.5869 17.5951 11.5874Z" fill="currentColor"/>
<path d="M16.6163 12.0948C16.7323 11.9787 16.7323 11.7906 16.6163 11.6746L16.3191 11.3774C16.2025 11.2648 16.0171 11.2663 15.9025 11.381C15.7878 11.4956 15.7862 11.681 15.8988 11.7976L16.196 12.0948C16.3121 12.2108 16.5003 12.2108 16.6163 12.0948Z" fill="currentColor"/>
<path d="M21.7559 11.5873C21.869 11.5879 21.9727 11.5242 22.0233 11.4229L22.3205 10.8285C22.3939 10.6808 22.3336 10.5016 22.1859 10.4282C22.0382 10.3548 21.859 10.4151 21.7856 10.5628L21.4884 11.1572C21.4422 11.2496 21.4473 11.3593 21.5019 11.447C21.5564 11.5347 21.6526 11.5878 21.7559 11.5873Z" fill="currentColor"/>
<path d="M23.1545 12.0946L23.4517 11.7974C23.529 11.7228 23.56 11.6122 23.5328 11.5083C23.5056 11.4044 23.4244 11.3233 23.3205 11.2961C23.2166 11.2689 23.1061 11.2998 23.0315 11.3771L22.7343 11.6743C22.657 11.7489 22.626 11.8594 22.6533 11.9633C22.6805 12.0672 22.7616 12.1484 22.8655 12.1756C22.9694 12.2028 23.0799 12.1718 23.1545 12.0946Z" fill="currentColor"/>
</svg>
