<svg width="1em" viewBox="0 0 11 14" fill="none" xmlns="http://www.w3.org/2000/svg">
<path d="M9.91668 2.81613V1.58774C10.2637 1.38543 10.5 1.01333 10.5 0.583324V0.291676C10.5 0.130457 10.3695 0 10.2083 0H0.291676C0.130457 0 0 0.130457 0 0.291676V0.583352C0 1.01333 0.236305 1.38543 0.583324 1.58777V2.81613C0.583324 3.97198 1.07609 5.07825 1.93514 5.85129L3.21147 7L1.93514 8.14871C1.07609 8.92175 0.583324 10.028 0.583324 11.1839V12.4122C0.236305 12.6146 0 12.9867 0 13.4167V13.7084C0 13.8695 0.130457 14 0.291676 14H10.2084C10.3696 14 10.5 13.8695 10.5 13.7083V13.4166C10.5 12.9867 10.2637 12.6146 9.9167 12.4122V11.1839C9.9167 10.028 9.42394 8.92175 8.56488 8.14871L7.28853 7L8.56486 5.85129C9.42391 5.07825 9.91668 3.97195 9.91668 2.81613ZM7.78444 4.98425L6.02645 6.56649C5.90341 6.67702 5.83332 6.83452 5.83332 7C5.83332 7.16548 5.90341 7.32301 6.02645 7.43351L7.78444 9.01575C8.39795 9.56804 8.75 10.3584 8.75 11.1839V12.25H8.02069L5.48327 8.86679C5.37332 8.71981 5.12665 8.71981 5.0167 8.86679L2.47931 12.25H1.75V11.1839C1.75 10.3584 2.10205 9.56802 2.71559 9.01573L4.47357 7.43348C4.59662 7.32296 4.6667 7.16546 4.6667 6.99997C4.6667 6.83449 4.59662 6.67696 4.47357 6.56646L2.71559 4.98422C2.10205 4.43196 1.75 3.64156 1.75 2.81613V1.75H8.75V2.81613C8.75 3.64156 8.39795 4.43196 7.78444 4.98425Z" fill="currentColor"/>
<path d="M7.26034 4.08325H3.23939C3.12402 4.08325 3.01949 4.15134 2.97278 4.25672C2.92608 4.3624 2.94571 4.48545 3.02348 4.5709L5.05433 6.44452C5.10986 6.49494 5.17994 6.51999 5.25 6.51999C5.32005 6.51999 5.39014 6.49492 5.44567 6.44452L7.47622 4.5709C7.55398 4.48545 7.57364 4.3624 7.52691 4.25672C7.48024 4.15134 7.3757 4.08325 7.26034 4.08325Z" fill="currentColor"/>
</svg>
