<svg
  class="icon leaderboard-icon"
  width="1em"
  viewBox="0 0 17 17"
  fill="none"
  xmlns="http://www.w3.org/2000/svg"
>
  <path
    d="M8.49989 3.44922L8.19631 3.60374V4.25004C8.22948 4.8877 8.07463 5.52105 7.75098 6.07147H9.24879C8.92515 5.52105 8.77029 4.8877 8.80346 4.25004V3.60374L8.49989 3.44922Z"
    fill="currentColor"
  />
  <path
    d="M0.607142 16.9999H16.3928C16.5539 16.9999 16.7083 16.936 16.8222 16.8221C16.936 16.7082 17 16.5538 17 16.3928C17 16.2318 16.936 16.0773 16.8222 15.9635C16.7083 15.8496 16.5539 15.7856 16.3928 15.7856H0.607142C0.446118 15.7856 0.291689 15.8496 0.177828 15.9635C0.0639665 16.0773 0 16.2318 0 16.3928C0 16.5538 0.0639665 16.7082 0.177828 16.8221C0.291689 16.936 0.446118 16.9999 0.607142 16.9999Z"
    fill="currentColor"
  />
  <path
    d="M7.55883 2.28923L7.37153 3.34718L7.76071 3.14682C7.76739 3.14378 7.77285 3.13984 7.77983 3.13711L8.36087 2.83809C8.40355 2.81634 8.45078 2.805 8.49869 2.805C8.5466 2.805 8.59382 2.81634 8.63651 2.83809L9.61734 3.33746L9.44097 2.28923C9.43234 2.23971 9.43615 2.18882 9.45205 2.14114C9.46794 2.09345 9.49543 2.05046 9.53204 2.01602L10.3253 1.2668L9.22483 1.12625C9.17647 1.11944 9.13047 1.10107 9.09073 1.07269C9.05099 1.04431 9.01868 1.00676 8.99654 0.963232L8.50445 0L8.00508 0.962624C7.98295 1.00616 7.95064 1.0437 7.9109 1.07208C7.87116 1.10046 7.82515 1.11884 7.7768 1.12564L6.6806 1.27986L7.46989 2.01541C7.50622 2.05012 7.53336 2.09331 7.54889 2.1411C7.56441 2.1889 7.56783 2.23979 7.55883 2.28923Z"
    fill="currentColor"
  />
  <path
    d="M10.9285 9.71418V7.28561C10.9285 7.12458 10.8645 6.97016 10.7507 6.85629C10.6368 6.74243 10.4824 6.67847 10.3214 6.67847H6.67849C6.51747 6.67847 6.36304 6.74243 6.24918 6.85629C6.13532 6.97016 6.07135 7.12458 6.07135 7.28561V15.1785H10.9285V9.71418ZM9.10707 12.4463H7.89278C7.81227 12.4463 7.73505 12.4143 7.67812 12.3574C7.62119 12.3005 7.58921 12.2233 7.58921 12.1427C7.58921 12.0622 7.62119 11.985 7.67812 11.9281C7.73505 11.8712 7.81227 11.8392 7.89278 11.8392H8.19635V10.3213C8.13632 10.3213 8.07764 10.3035 8.02773 10.2701C7.97782 10.2368 7.93892 10.1894 7.91595 10.1339C7.89298 10.0784 7.88697 10.0174 7.89867 9.95854C7.91038 9.89966 7.93928 9.84558 7.98173 9.80312L8.2853 9.49955C8.32775 9.45711 8.38184 9.42821 8.44072 9.4165C8.4996 9.40479 8.56062 9.4108 8.61609 9.43377C8.67155 9.45675 8.71896 9.49565 8.75231 9.54556C8.78567 9.59547 8.80348 9.65414 8.80349 9.71418V11.8392H9.10707C9.18758 11.8392 9.26479 11.8712 9.32172 11.9281C9.37865 11.985 9.41064 12.0622 9.41064 12.1427C9.41064 12.2233 9.37865 12.3005 9.32172 12.3574C9.26479 12.4143 9.18758 12.4463 9.10707 12.4463Z"
    fill="currentColor"
  />
  <path
    d="M5.46427 10.9284C5.46427 10.7674 5.4003 10.613 5.28644 10.4991C5.17258 10.3853 5.01815 10.3213 4.85713 10.3213H1.51785C1.35682 10.3213 1.20239 10.3853 1.08853 10.4991C0.974672 10.613 0.910706 10.7674 0.910706 10.9284V15.1784H5.46427V10.9284ZM3.64284 13.6606C3.72336 13.6606 3.80057 13.6926 3.8575 13.7495C3.91443 13.8064 3.94642 13.8836 3.94642 13.9641C3.94642 14.0447 3.91443 14.1219 3.8575 14.1788C3.80057 14.2357 3.72336 14.2677 3.64284 14.2677H2.42856C2.36485 14.2677 2.30275 14.2477 2.25106 14.2104C2.19937 14.1732 2.16072 14.1206 2.14057 14.0601C2.12042 13.9997 2.1198 13.9344 2.1388 13.8736C2.1578 13.8128 2.19545 13.7595 2.24642 13.7213C2.54999 13.4924 3.33927 12.7626 3.33927 12.1427C3.33927 12.0622 3.30729 11.985 3.25036 11.9281C3.19343 11.8711 3.11621 11.8391 3.0357 11.8391C2.95519 11.8391 2.87798 11.8711 2.82105 11.9281C2.76411 11.985 2.73213 12.0622 2.73213 12.1427C2.73213 12.2232 2.70015 12.3004 2.64322 12.3574C2.58629 12.4143 2.50907 12.4463 2.42856 12.4463C2.34805 12.4463 2.27083 12.4143 2.2139 12.3574C2.15697 12.3004 2.12499 12.2232 2.12499 12.1427C2.12499 11.9012 2.22094 11.6695 2.39173 11.4987C2.56252 11.328 2.79417 11.232 3.0357 11.232C3.27724 11.232 3.50888 11.328 3.67967 11.4987C3.85047 11.6695 3.94642 11.9012 3.94642 12.1427C3.94642 12.7247 3.56543 13.2738 3.20874 13.6606H3.64284Z"
    fill="currentColor"
  />
  <path
    d="M16.0891 9.71432C16.0891 9.5533 16.0252 9.39887 15.9113 9.285C15.7975 9.17114 15.643 9.10718 15.482 9.10718H12.1427C11.9817 9.10718 11.8273 9.17114 11.7134 9.285C11.5995 9.39887 11.5356 9.5533 11.5356 9.71432V15.1786H16.0891V9.71432ZM14.8749 12.75C14.8749 12.9916 14.7789 13.2232 14.6081 13.394C14.4373 13.5648 14.2057 13.6607 13.9642 13.6607C13.7226 13.6607 13.491 13.5648 13.3202 13.394C13.1494 13.2232 13.0534 12.9916 13.0534 12.75C13.0534 12.6695 13.0854 12.5923 13.1424 12.5354C13.1993 12.4784 13.2765 12.4465 13.357 12.4465C13.4375 12.4465 13.5147 12.4784 13.5717 12.5354C13.6286 12.5923 13.6606 12.6695 13.6606 12.75C13.6607 12.8019 13.674 12.8529 13.6994 12.8982C13.7248 12.9434 13.7614 12.9814 13.8057 13.0085C13.8499 13.0355 13.9004 13.0508 13.9522 13.0529C14.0041 13.0549 14.0556 13.0436 14.1018 13.0201C14.1481 12.9966 14.1875 12.9616 14.2164 12.9185C14.2452 12.8754 14.2626 12.8256 14.2667 12.7739C14.2709 12.7221 14.2617 12.6702 14.2401 12.6231C14.2185 12.5759 14.1852 12.5351 14.1433 12.5044C14.087 12.4624 14.0413 12.4078 14.0098 12.345C13.9783 12.2822 13.9619 12.213 13.9619 12.1427C13.9619 12.0725 13.9783 12.0032 14.0098 11.9404C14.0413 11.8776 14.087 11.8231 14.1433 11.781C14.1852 11.7504 14.2185 11.7096 14.2401 11.6624C14.2618 11.6152 14.2709 11.5633 14.2667 11.5115C14.2626 11.4598 14.2452 11.41 14.2163 11.3669C14.1874 11.3238 14.1479 11.2888 14.1017 11.2653C14.0554 11.2418 14.0039 11.2305 13.952 11.2326C13.9002 11.2347 13.8497 11.25 13.8055 11.2771C13.7612 11.3043 13.7247 11.3423 13.6993 11.3875C13.6739 11.4328 13.6606 11.4838 13.6606 11.5357C13.6606 11.6163 13.6286 11.6935 13.5717 11.7504C13.5147 11.8073 13.4375 11.8393 13.357 11.8393C13.2765 11.8393 13.1993 11.8073 13.1424 11.7504C13.0854 11.6935 13.0534 11.6163 13.0534 11.5357C13.0534 11.3881 13.0892 11.2426 13.1579 11.1119C13.2265 10.9812 13.326 10.8691 13.4476 10.7854C13.5692 10.7016 13.7093 10.6487 13.8559 10.6311C14.0026 10.6136 14.1512 10.6319 14.2892 10.6846C14.4271 10.7373 14.5502 10.8228 14.6477 10.9336C14.7453 11.0445 14.8145 11.1773 14.8492 11.3208C14.884 11.4644 14.8834 11.6142 14.8474 11.7574C14.8114 11.9006 14.7411 12.0329 14.6426 12.1429C14.7918 12.31 14.8744 12.526 14.8749 12.75Z"
    fill="currentColor"
  />
</svg>