<svg width="1em" viewBox="0 0 14 14" xmlns="http://www.w3.org/2000/svg">
<path d="M7.53548 9.6759L5.39341 11.818C5.39341 11.818 5.39341 11.8181 5.39336 11.8181C5.39336 11.8181 5.39336 11.8181 5.39331 11.8181C4.5075 12.704 3.0661 12.704 2.18019 11.8181C1.75102 11.3889 1.51472 10.8184 1.51472 10.2115C1.51472 9.60471 1.75102 9.03421 2.18004 8.60504C2.18009 8.60499 2.18014 8.60494 2.18019 8.60489L4.32225 6.46277C4.61798 6.167 4.61798 5.68744 4.3222 5.39171C4.02648 5.09599 3.54692 5.09599 3.25114 5.39171L1.10908 7.53383C1.10893 7.53398 1.10878 7.53418 1.10862 7.53434C0.393726 8.24949 0 9.20028 0 10.2115C0 11.223 0.393878 12.1739 1.10913 12.8892C1.8474 13.6274 2.81708 13.9965 3.7868 13.9965C4.75652 13.9965 5.72625 13.6274 6.46442 12.8892C6.46447 12.8892 6.46447 12.8891 6.46447 12.8891L8.60654 10.747C8.90226 10.4512 8.90226 9.97167 8.60649 9.6759C8.31081 9.38017 7.8313 9.38017 7.53548 9.6759Z" fill="currentColor"/>
<path d="M14 3.78499C14 2.77351 13.6061 1.82257 12.8908 1.10732C11.4143 -0.369131 9.01192 -0.36908 7.53553 1.10732C7.53548 1.10742 7.53538 1.10747 7.53533 1.10757L5.39331 3.24953C5.09753 3.54526 5.09753 4.02487 5.39331 4.32059C5.54125 4.46853 5.73503 4.54245 5.92886 4.54245C6.12265 4.54245 6.31653 4.46848 6.46437 4.32059L8.60638 2.17863C8.60643 2.17853 8.60654 2.17848 8.60664 2.17838C9.49244 1.29257 10.9339 1.29252 11.8198 2.17838C12.2489 2.60755 12.4853 3.17814 12.4853 3.78499C12.4853 4.39179 12.249 4.96228 11.8199 5.39145L11.8198 5.3916L9.67769 7.53372C9.38197 7.82944 9.38197 8.309 9.67774 8.60478C9.82563 8.75266 10.0195 8.82663 10.2132 8.82663C10.4071 8.82663 10.6009 8.75266 10.7488 8.60478L12.8909 6.46266C12.891 6.46251 12.8912 6.46231 12.8913 6.46215C13.6062 5.747 14 4.79622 14 3.78499Z" fill="currentColor"/>
<path d="M4.32239 9.67596C4.47027 9.82385 4.66411 9.89782 4.85789 9.89782C5.05172 9.89782 5.24556 9.82385 5.39344 9.67596L9.67768 5.39173C9.97345 5.096 9.97345 4.61644 9.67768 4.32067C9.38195 4.02495 8.90239 4.02495 8.60662 4.32067L4.32239 8.60485C4.02661 8.90068 4.02661 9.38024 4.32239 9.67596Z" fill="currentColor"/>
</svg>
