<svg width="1em" viewBox="0 0 19 17" fill="none" xmlns="http://www.w3.org/2000/svg">
<path fill-rule="evenodd" clip-rule="evenodd" d="M19 2.0715C19 1.32198 18.3924 0.714355 17.6429 0.714355H1.35714C0.60762 0.714355 0 1.32198 0 2.0715C0 2.82102 0.60762 3.42864 1.35714 3.42864H17.6429C18.3924 3.42864 19 2.82102 19 2.0715ZM19 8.85721C19 8.10766 18.3924 7.50007 17.6429 7.50007H6.78571C6.03618 7.50007 5.42857 8.10766 5.42857 8.85721C5.42857 9.60676 6.03619 10.2144 6.78571 10.2144H17.6429C18.3924 10.2144 19 9.60676 19 8.85721ZM17.6429 14.2858C18.3924 14.2858 19 14.8934 19 15.6429C19 16.3925 18.3924 17.0001 17.6429 17.0001H1.35714C0.60762 17.0001 0 16.3925 0 15.6429C0 14.8934 0.60762 14.2858 1.35714 14.2858H17.6429Z" fill="#8286D0"/>
</svg>
