<svg
  class="icon mines-icon"
  width="1em"
  viewBox="0 0 16 14"
  fill="none"
  xmlns="http://www.w3.org/2000/svg"
>
  <path
    d="M15.7449 1.03782C14.3593 0.150977 13.18 0.327536 12.1521 0.913366C11.2531 0.145412 10.4092 0.120117 10.4092 0.120117L9.12729 1.40308C6.75665 0.262275 3.82952 0.669017 1.86563 2.63342C-0.621876 5.12092 -0.621876 9.15496 1.86563 11.642C4.35313 14.13 8.38615 14.13 10.8737 11.642C12.8391 9.67755 13.2453 6.74992 12.106 4.38029L13.3885 3.09733C13.3885 3.09733 13.3708 2.4943 12.9043 1.7653C13.6141 1.42432 14.3168 1.43394 15.1495 1.96766C15.406 2.13208 15.7485 2.0572 15.9124 1.80021C16.0763 1.54372 16.0035 1.20274 15.7449 1.03782ZM5.92597 3.19244C5.80101 3.21925 2.85365 3.87287 2.44994 6.59966C2.40542 6.90017 2.12414 7.10961 1.82212 7.06408C1.7007 7.04637 1.59396 6.99022 1.51352 6.90877C1.39413 6.78937 1.33039 6.61686 1.3572 6.43626C1.87473 2.93898 5.54604 2.1427 5.70185 2.11083C6.00084 2.04961 6.29224 2.24185 6.35497 2.53983C6.41568 2.83881 6.22445 3.13021 5.92597 3.19244ZM7.81752 2.84134C7.60454 3.05483 7.25749 3.05433 7.04451 2.84134C6.83102 2.62786 6.83102 2.28182 7.04451 2.06833C7.25749 1.85484 7.60454 1.85535 7.81752 2.06833C8.03101 2.28132 8.03101 2.62836 7.81752 2.84134Z"
    fill="currentColor"
  />
</svg>
