<svg width="1em" viewBox="0 0 20 23" fill="none" xmlns="http://www.w3.org/2000/svg">
<path d="M2.33314 6.93829C2.01422 6.75409 1.60657 6.86346 1.42254 7.18222C1.23834 7.50114 1.34772 7.90879 1.66647 8.09281C1.98522 8.27702 2.39304 8.16764 2.57707 7.84889C2.76127 7.52996 2.65189 7.12232 2.33314 6.93829Z" fill="currentColor"/>
<path d="M19.3334 5.51572H18.6667V4.84905C18.6667 4.48064 18.3686 4.18237 18 4.18237C17.6316 4.18237 17.3333 4.48064 17.3333 4.84905V5.51572H16.6667C16.2983 5.51572 16 5.81398 16 6.18239C16 6.55097 16.2983 6.84906 16.6667 6.84906H17.3333V7.51573C17.3333 7.88414 17.6316 8.18241 18 8.18241C18.3686 8.18241 18.6667 7.88414 18.6667 7.51573V6.84906H19.3334C19.7018 6.84906 20 6.55097 20 6.18239C20 5.81398 19.7018 5.51572 19.3334 5.51572Z" fill="currentColor"/>
<path d="M1.33334 3.4713C1.33334 3.83988 1.63144 4.13797 2.00002 4.13797C2.36842 4.13797 2.66669 3.83988 2.66669 3.4713V2.80463H3.33336C3.70177 2.80463 4.00003 2.50654 4.00003 2.13796C4.00003 1.76955 3.70177 1.47128 3.33336 1.47128H2.66669V0.804612C2.66669 0.436206 2.36842 0.137939 2.00002 0.137939C1.63144 0.137939 1.33334 0.436206 1.33334 0.804612V1.47128H0.666672C0.298266 1.47128 0 1.76955 0 2.13796C0 2.50654 0.298266 2.80463 0.666672 2.80463H1.33334V3.4713Z" fill="currentColor"/>
<path d="M5.54435 1.38409C6.1789 2.65355 6.53133 4.05495 6.62005 5.47128H13.3802C13.4687 4.05512 13.8212 2.65355 14.4557 1.38409L14.5963 1.10284C14.7246 0.846412 14.6745 0.536514 14.4713 0.333387C14.2689 0.13026 13.959 0.080086 13.7019 0.208386L11.4649 1.3268L10.4713 0.333387C10.2109 0.0729679 9.789 0.0729679 9.52858 0.333387L8.53517 1.3268L6.29817 0.208212C6.04036 0.080086 5.73254 0.129566 5.52872 0.333387C5.32559 0.53634 5.27542 0.846238 5.40372 1.10284L5.54435 1.38409Z" fill="currentColor"/>
<path d="M14.0817 6.849H5.91807L3.3151 9.99937C2.03714 11.547 1.33331 13.5503 1.33331 15.5602C1.33331 20.0151 4.73508 22.8934 9.99988 22.8934C15.2649 22.8934 18.6666 20.0151 18.6666 15.5602C18.6666 13.5503 17.9628 11.5914 16.6841 10.0438L14.0817 6.849ZM9.99276 13.7555C11.0957 13.7555 11.9928 14.6525 11.9928 15.7555C11.9928 16.6208 11.4372 17.3522 10.6666 17.6303V18.2269C10.6666 18.5953 10.3685 18.8935 9.99988 18.8935C9.63147 18.8935 9.33338 18.5953 9.33338 18.2269V17.6349C8.55525 17.3607 7.99274 16.626 7.99274 15.7555C7.99274 15.3869 8.29101 15.0888 8.65942 15.0888C9.028 15.0888 9.32609 15.3869 9.32609 15.7555C9.32609 16.1234 9.62505 16.4222 9.99276 16.4222C10.3606 16.4222 10.6594 16.1234 10.6594 15.7555C10.6594 15.3876 10.3606 15.0888 9.99276 15.0888C8.88997 15.0888 7.99274 14.1916 7.99274 13.0888C7.99274 12.2181 8.55525 11.4836 9.33338 11.2095V10.2268C9.33338 9.8584 9.63147 9.56013 9.99988 9.56013C10.3685 9.56013 10.6666 9.8584 10.6666 10.2268V11.214C11.4372 11.4921 11.9928 12.2235 11.9928 13.0888C11.9928 13.4574 11.6947 13.7555 11.3261 13.7555C10.9577 13.7555 10.6594 13.4574 10.6594 13.0888C10.6594 12.7211 10.3606 12.4221 9.99276 12.4221C9.62505 12.4221 9.32609 12.7211 9.32609 13.0888C9.32609 13.4567 9.62488 13.7555 9.99276 13.7555Z" fill="currentColor"/>
</svg>
