<svg width="22" height="22" viewBox="0 0 22 22" fill="none" xmlns="http://www.w3.org/2000/svg">
<path d="M13.0624 0H2.52082C1.12749 0 0 1.12749 0 2.52082V16.729C0 18.1224 1.12749 19.2499 2.52082 19.2499H9.9916C9.2216 18.0307 8.70827 16.5915 8.70827 14.9416V12.7049C8.57077 12.7874 8.41494 12.8332 8.24994 12.8332H3.66664C3.16248 12.8332 2.74998 12.4207 2.74998 11.9166C2.74998 11.4124 3.16248 10.9999 3.66664 10.9999H8.24994C8.42411 10.9999 8.57994 11.0458 8.71744 11.1283C8.75411 10.3491 9.12077 9.6341 9.69827 9.1666H3.66664C3.16248 9.1666 2.74998 8.7541 2.74998 8.24994C2.74998 7.74578 3.16248 7.33328 3.66664 7.33328H11.9166C12.3016 7.33328 12.6316 7.57161 12.7691 7.91078L15.3816 7.02162C15.4457 6.99412 15.5099 6.97578 15.5832 6.96662V2.52082C15.5832 1.12749 14.4557 0 13.0624 0ZM7.33328 5.49996H3.66664C3.16248 5.49996 2.74998 5.08746 2.74998 4.5833C2.74998 4.07914 3.16248 3.66664 3.66664 3.66664H7.33328C7.83745 3.66664 8.24994 4.07914 8.24994 4.5833C8.24994 5.08746 7.83745 5.49996 7.33328 5.49996Z" fill="#FBAB34"/>
<path d="M21.3787 10.3939L16.5662 8.75673C16.3746 8.69165 16.1666 8.69165 15.975 8.75673L11.1625 10.3939C10.7913 10.5204 10.541 10.8696 10.541 11.262V14.9451C10.541 19.5898 15.6917 21.8338 15.9108 21.9273C16.0263 21.9759 16.1491 21.9997 16.2711 21.9997C16.393 21.9997 16.5158 21.9759 16.6304 21.9264C16.8495 21.8329 22.0002 19.5898 22.0002 14.9451V11.262C22.0002 10.8687 21.7509 10.5204 21.3787 10.3939ZM19.5252 13.8414L16.7752 17.5081C16.6157 17.7207 16.3728 17.8537 16.107 17.872C16.085 17.8738 16.063 17.8747 16.0419 17.8747C15.799 17.8747 15.5661 17.7794 15.3938 17.6062L13.5605 15.7728C13.2021 15.4144 13.2021 14.8351 13.5605 14.4767C13.9189 14.1183 14.4982 14.1183 14.8567 14.4767L15.9429 15.5629L18.0585 12.7414C18.362 12.3372 18.9367 12.2538 19.341 12.5581C19.747 12.8615 19.8295 13.4363 19.5252 13.8414Z" fill="#FBAB34"/>
</svg>
