<svg
  class="icon question-mark-circle-icon"
  width="1em"
  viewBox="0 0 15 15"
  fill="none"
  xmlns="http://www.w3.org/2000/svg"
>
  <path
    d="M7.5 11.8213C7.90451 11.8213 8.23242 11.4934 8.23242 11.0889C8.23242 10.6844 7.90451 10.3564 7.5 10.3564C7.09549 10.3564 6.76758 10.6844 6.76758 11.0889C6.76758 11.4934 7.09549 11.8213 7.5 11.8213Z"
    fill="currentColor"
  />
  <path
    d="M7.5 0C3.35496 0 0 3.3544 0 7.5C0 11.645 3.3544 15 7.5 15C11.645 15 15 11.6456 15 7.5C15 3.35496 11.6456 0 7.5 0ZM7.5 13.8281C4.00263 13.8281 1.17188 10.9978 1.17188 7.5C1.17188 4.00263 4.00216 1.17188 7.5 1.17188C10.9974 1.17188 13.8281 4.00216 13.8281 7.5C13.8281 10.9974 10.9978 13.8281 7.5 13.8281Z"
    fill="currentColor"
  />
  <path
    d="M7.5 3.76465C6.20766 3.76465 5.15625 4.81605 5.15625 6.1084C5.15625 6.43201 5.41857 6.69434 5.74219 6.69434C6.0658 6.69434 6.32812 6.43201 6.32812 6.1084C6.32812 5.46223 6.85383 4.93652 7.5 4.93652C8.14617 4.93652 8.67188 5.46223 8.67188 6.1084C8.67188 6.75457 8.14617 7.28027 7.5 7.28027C7.17639 7.28027 6.91406 7.5426 6.91406 7.86621V9.33105C6.91406 9.65467 7.17639 9.91699 7.5 9.91699C7.82361 9.91699 8.08594 9.65467 8.08594 9.33105V8.378C9.09568 8.11717 9.84375 7.19851 9.84375 6.1084C9.84375 4.81605 8.79234 3.76465 7.5 3.76465Z"
    fill="currentColor"
  />
</svg>