<svg width="1em" viewBox="0 0 23 23" fill="none" xmlns="http://www.w3.org/2000/svg">
<rect width="23" height="23" rx="11.5" fill="currentColor" fill-opacity="0.15"/>
  <path d="M 11.5002 17.6944 C 12.1445 17.6944 12.6668 17.1721 12.6668 16.5278 C 12.6668 15.8834 12.1445 15.3611 11.5002 15.3611 C 10.8558 15.3611 10.3335 15.8834 10.3335 16.5278 C 10.3335 17.1721 10.8558 17.6944 11.5002 17.6944 Z" fill="currentColor"/>
<path d="M 11.5 5.25 C 9.5701 5.25 8 6.7121 8 8.5093 C 8 8.9593 8.3917 9.3241 8.875 9.3241 C 9.3583 9.3241 9.75 8.9593 9.75 8.5093 C 9.75 7.6107 10.5351 6.8796 11.5 6.8796 C 12.4649 6.8796 13.25 7.6107 13.25 8.5093 C 13.25 9.4078 12.4649 10.1389 11.5 10.1389 C 11.0167 10.1389 10.625 10.5037 10.625 10.9537 V 12.9907 C 10.625 13.4408 11.0167 13.8056 11.5 13.8056 C 11.9833 13.8056 12.375 13.4408 12.375 12.9907 V 11.6654 C 13.8829 11.3027 15 10.0252 15 8.5093 C 15 6.7121 13.4299 5.25 11.5 5.25 Z" fill="currentColor"/>
</svg>
