<svg
  class="icon question-mark-icon"
  width="1em"
  viewBox="0 0 9 16"
  fill="none"
  xmlns="http://www.w3.org/2000/svg"
>
  <path
    d="M4.5 16C5.32843 16 6 15.3284 6 14.5C6 13.6716 5.32843 13 4.5 13C3.67157 13 3 13.6716 3 14.5C3 15.3284 3.67157 16 4.5 16Z"
    fill="currentColor"
  />
  <path
    d="M4.5 0C2.0187 0 0 1.87985 0 4.19048C0 4.76908 0.503663 5.2381 1.125 5.2381C1.74634 5.2381 2.25 4.76908 2.25 4.19048C2.25 3.03516 3.25935 2.09524 4.5 2.09524C5.74065 2.09524 6.75 3.03516 6.75 4.19048C6.75 5.34579 5.74065 6.28571 4.5 6.28571C3.87866 6.28571 3.375 6.75473 3.375 7.33333V9.95238C3.375 10.531 3.87866 11 4.5 11C5.12134 11 5.625 10.531 5.625 9.95238V8.24838C7.56371 7.78203 9 6.13952 9 4.19048C9 1.87985 6.9813 0 4.5 0Z"
    fill="currentColor"
  />
</svg>