<svg
  class="icon secured-docs-icon"
  width="1em"
  viewBox="0 0 15 15"
  fill="none"
  xmlns="http://www.w3.org/2000/svg"
>
  <path
    d="M9.27878 0.504883H4.25851C3.72043 0.504883 3.20154 0.697318 2.77241 1.11054L0.630659 3.22104C0.247179 3.60444 0 4.1337 0 4.7321V11.5132C0 12.6933 0.961614 13.6549 2.14175 13.6549H7.97371C7.96746 13.6487 7.96746 13.6424 7.96121 13.6362C7.0246 11.9503 7.13702 9.99586 7.19945 9.4027C7.2432 8.87818 7.54915 8.41613 8.01746 8.16635L10.5463 6.79889C10.7773 6.674 11.0333 6.61158 11.2894 6.61158C11.3331 6.61158 11.383 6.61158 11.4267 6.61783V2.6466C11.4267 1.46646 10.4651 0.504883 9.27878 0.504883ZM4.95159 9.80229H3.10337C2.75991 9.80229 2.47896 9.52134 2.47896 9.17789C2.47896 8.82822 2.75991 8.55348 3.10337 8.55348H4.95159C5.30122 8.55348 5.576 8.82822 5.576 9.17789C5.576 9.52134 5.30122 9.80229 4.95159 9.80229ZM6.80614 6.93628H3.10337C2.75991 6.93628 2.47896 6.65529 2.47896 6.31187C2.47896 5.96221 2.75991 5.68746 3.10337 5.68746H6.80614C7.14952 5.68746 7.43055 5.96221 7.43055 6.31187C7.43055 6.65529 7.14952 6.93628 6.80614 6.93628Z"
    fill="currentColor"
  />
  <path
    d="M8.90406 9.2964C8.81046 9.34637 8.74795 9.43379 8.7417 9.53993C8.6856 10.0582 8.5981 11.6942 9.35361 13.0554C9.41612 13.1677 9.48479 13.2801 9.55972 13.3863C10.0155 14.0482 10.6962 14.6039 11.7139 14.8911C14.9546 13.9732 14.5737 10.3329 14.4489 9.52743C14.4364 9.42754 14.3739 9.34637 14.2865 9.2964L11.7452 7.9227C11.6516 7.87277 11.5329 7.87277 11.4392 7.9227L11.4267 7.92895C11.3636 7.96315 8.73945 9.38563 8.90406 9.2964Z"
    fill="currentColor"
  />
</svg>