<svg width="1em" viewBox="0 0 15 15" fill="none" xmlns="http://www.w3.org/2000/svg">
<path d="M14.8412 2.36997C14.7909 2.42041 14.7312 2.46043 14.6655 2.48774C14.5998 2.51505 14.5293 2.5291 14.4581 2.5291C14.3869 2.5291 14.3164 2.51505 14.2507 2.48774C14.185 2.46043 14.1253 2.42041 14.075 2.36997L13.5547 1.85028V4.15525C13.5547 4.29902 13.4976 4.43691 13.3959 4.53857C13.2942 4.64023 13.1564 4.69734 13.0126 4.69734C12.8688 4.69734 12.7309 4.64023 12.6293 4.53857C12.5276 4.43691 12.4705 4.29902 12.4705 4.15525V1.85028L11.9501 2.36997C11.8474 2.46572 11.7115 2.51785 11.571 2.51537C11.4306 2.5129 11.2966 2.456 11.1973 2.35668C11.098 2.25736 11.0411 2.12337 11.0386 1.98293C11.0361 1.84249 11.0883 1.70658 11.184 1.60381L12.6295 0.158238C12.7313 0.0568987 12.869 0 13.0126 0C13.1562 0 13.2939 0.0568987 13.3957 0.158238L14.8412 1.60381C14.8915 1.65409 14.9315 1.71381 14.9587 1.77954C14.986 1.84527 15 1.91573 15 1.98689C15 2.05805 14.986 2.12851 14.9587 2.19424C14.9315 2.25997 14.8915 2.31969 14.8412 2.36997ZM14.4581 7.76919C14.4585 8.73595 14.265 9.69297 13.8889 10.5836C13.5129 11.4742 12.962 12.2804 12.2689 12.9543C11.5758 13.6282 10.7545 14.1563 9.85371 14.5071C8.95291 14.858 7.99087 15.0246 7.02454 14.9971C5.18484 14.9265 3.43958 14.164 2.13776 12.8622C0.835942 11.5603 0.0735131 9.81496 0.0029361 7.97518C-0.0246156 7.00881 0.141971 6.04673 0.492835 5.14589C0.8437 4.24505 1.37171 3.42376 2.04562 2.73061C2.71953 2.03747 3.52563 1.48658 4.41622 1.11053C5.30682 0.734479 6.2638 0.540923 7.23052 0.541315C8.15932 0.537934 9.07964 0.717978 9.9387 1.07112C9.96586 1.08309 9.99032 1.10042 10.0106 1.12208C10.0309 1.14373 10.0466 1.16926 10.0568 1.19714C10.067 1.22501 10.0715 1.25466 10.0699 1.2843C10.0684 1.31394 10.0609 1.34296 10.0478 1.36963C9.83569 1.83843 9.7378 2.35087 9.76219 2.86487C9.78659 3.37886 9.93259 3.87972 10.1882 4.32632C10.4438 4.77291 10.8017 5.15248 11.2325 5.43385C11.6633 5.71522 12.1547 5.89036 12.6664 5.94487C13.0989 5.98986 13.536 5.94934 13.9529 5.82561C13.9805 5.81637 14.0098 5.81279 14.0388 5.8151C14.0679 5.81741 14.0962 5.82555 14.122 5.83905C14.1479 5.85254 14.1707 5.87111 14.1892 5.89364C14.2077 5.91617 14.2215 5.9422 14.2297 5.97017C14.3821 6.55769 14.4588 7.16224 14.4581 7.76919ZM9.37856 9.22705C9.37852 8.80432 9.23725 8.39371 8.9772 8.06044C8.71714 7.72717 8.3532 7.49034 7.94316 7.38756L6.78097 7.09844C6.60352 7.05405 6.44633 6.95087 6.33502 6.80571C6.22467 6.66439 6.16532 6.48991 6.16662 6.31061C6.167 6.09571 6.25259 5.88973 6.40461 5.73784C6.55662 5.58595 6.76267 5.50055 6.97756 5.50036H7.48349C7.68324 5.50072 7.87587 5.5746 8.02464 5.70791C8.1734 5.84122 8.26789 6.02462 8.29009 6.22315C8.29601 6.29546 8.31639 6.36584 8.35001 6.43013C8.38363 6.49442 8.42982 6.55131 8.48583 6.59742C8.54184 6.64353 8.60654 6.67793 8.67609 6.69858C8.74564 6.71922 8.81863 6.7257 8.89073 6.71762C8.96282 6.70954 9.03257 6.68706 9.09582 6.65153C9.15907 6.616 9.21455 6.56813 9.25897 6.51077C9.30338 6.4534 9.33583 6.3877 9.35438 6.31756C9.37294 6.24742 9.37723 6.17427 9.367 6.10244C9.32053 5.68615 9.13721 5.29705 8.84577 4.99619C8.55434 4.69532 8.17128 4.49971 7.75669 4.44003V4.15525C7.75669 4.01148 7.69958 3.8736 7.59792 3.77194C7.49627 3.67027 7.35839 3.61316 7.21462 3.61316C7.07086 3.61316 6.93298 3.67027 6.83132 3.77194C6.72966 3.8736 6.67255 4.01148 6.67255 4.15525V4.44437C6.24261 4.51432 5.84996 4.73048 5.56089 5.05635C5.27182 5.38223 5.10404 5.79787 5.08586 6.23311C5.06769 6.66835 5.20023 7.09653 5.46112 7.44538C5.72201 7.79422 6.09526 8.04237 6.51788 8.14793L7.68008 8.43705C7.87192 8.48536 8.03952 8.60207 8.15136 8.76526C8.26321 8.92845 8.31161 9.12687 8.28747 9.32323C8.26332 9.51959 8.16829 9.70037 8.02025 9.83159C7.8722 9.96282 7.68132 10.0355 7.48349 10.0359H6.97756C6.77781 10.0355 6.58518 9.96161 6.43641 9.8283C6.28764 9.69499 6.19315 9.51159 6.17096 9.31306C6.16504 9.24075 6.14466 9.17037 6.11104 9.10608C6.07741 9.04179 6.03123 8.9849 5.97522 8.93879C5.9192 8.89268 5.85451 8.85828 5.78496 8.83763C5.71541 8.81699 5.64242 8.81051 5.57032 8.81859C5.49822 8.82667 5.42848 8.84915 5.36523 8.88468C5.30197 8.92021 5.24649 8.96808 5.20208 9.02545C5.15767 9.08281 5.12522 9.14851 5.10666 9.21865C5.0881 9.28879 5.08382 9.36194 5.09405 9.43377C5.13958 9.84499 5.31858 10.23 5.60365 10.5298C5.88872 10.8296 6.26417 11.0278 6.67255 11.094V11.3831C6.67255 11.5269 6.72966 11.6648 6.83132 11.7664C6.93298 11.8681 7.07086 11.9252 7.21462 11.9252C7.35839 11.9252 7.49627 11.8681 7.59792 11.7664C7.69958 11.6648 7.75669 11.5269 7.75669 11.3831V11.094C8.2069 11.0306 8.619 10.8065 8.91705 10.4631C9.2151 10.1198 9.379 9.68028 9.37856 9.22561V9.22705Z" fill="currentColor"/>
</svg>
