<svg
  class="icon smiley-icon"
  width="1em"
  viewBox="0 0 24 24"
  fill="none"
  xmlns="http://www.w3.org/2000/svg"
>
  <rect
    x="0.75"
    y="0.75"
    width="22.5"
    height="22.5"
    rx="11.25"
    stroke="currentColor"
    strokeWidth="1.5"
  />
  <g clipPath="url(#clip0_870_165)">
    <path
      d="M9.99999 12.0002C10.1768 12.0002 10.3464 11.9299 10.4714 11.8049C10.5964 11.6799 10.6667 11.5103 10.6667 11.3335V10.0002C10.6667 9.82335 10.5964 9.65378 10.4714 9.52876C10.3464 9.40373 10.1768 9.3335 9.99999 9.3335C9.82318 9.3335 9.65361 9.40373 9.52859 9.52876C9.40357 9.65378 9.33333 9.82335 9.33333 10.0002V11.3335C9.33333 11.5103 9.40357 11.6799 9.52859 11.8049C9.65361 11.9299 9.82318 12.0002 9.99999 12.0002Z"
      fill="currentColor"
    />
    <path
      d="M14 12.0002C14.1768 12.0002 14.3464 11.9299 14.4714 11.8049C14.5964 11.6799 14.6667 11.5103 14.6667 11.3335V10.0002C14.6667 9.82335 14.5964 9.65378 14.4714 9.52876C14.3464 9.40373 14.1768 9.3335 14 9.3335C13.8232 9.3335 13.6536 9.40373 13.5286 9.52876C13.4036 9.65378 13.3333 9.82335 13.3333 10.0002V11.3335C13.3333 11.5103 13.4036 11.6799 13.5286 11.8049C13.6536 11.9299 13.8232 12.0002 14 12.0002Z"
      fill="currentColor"
    />
    <path
      d="M14.15 13.5788C13.9023 13.9164 13.5786 14.191 13.2051 14.3802C12.8315 14.5694 12.4187 14.668 12 14.668C11.5813 14.668 11.1685 14.5694 10.7949 14.3802C10.4214 14.191 10.0977 13.9164 9.84999 13.5788C9.73825 13.4418 9.57665 13.3548 9.40074 13.3369C9.22483 13.319 9.04902 13.3718 8.91199 13.4835C8.77496 13.5953 8.68794 13.7569 8.67006 13.9328C8.65218 14.1087 8.70492 14.2845 8.81666 14.4215C9.18984 14.912 9.67132 15.3096 10.2235 15.5833C10.7757 15.857 11.3837 15.9995 12 15.9995C12.6163 15.9995 13.2243 15.857 13.7765 15.5833C14.3287 15.3096 14.8101 14.912 15.1833 14.4215C15.2951 14.2845 15.3478 14.1087 15.3299 13.9328C15.312 13.7569 15.225 13.5953 15.088 13.4835C14.951 13.3718 14.7752 13.319 14.5992 13.3369C14.4233 13.3548 14.2617 13.4418 14.15 13.5788Z"
      fill="currentColor"
    />
    <path
      d="M12 4.6665C10.5496 4.6665 9.13177 5.0966 7.92581 5.90239C6.71985 6.70819 5.77992 7.8535 5.22488 9.19349C4.66983 10.5335 4.52461 12.008 4.80757 13.4305C5.09053 14.853 5.78896 16.1597 6.81454 17.1853C7.84013 18.2109 9.1468 18.9093 10.5693 19.1923C11.9919 19.4752 13.4663 19.33 14.8063 18.775C16.1463 18.2199 17.2916 17.28 18.0974 16.074C18.9032 14.8681 19.3333 13.4502 19.3333 11.9998C19.331 10.0556 18.5577 8.19169 17.1829 6.81692C15.8081 5.44215 13.9442 4.6688 12 4.6665ZM12 17.9998C10.8133 17.9998 9.65327 17.648 8.66657 16.9887C7.67988 16.3294 6.91084 15.3923 6.45672 14.2959C6.00259 13.1996 5.88377 11.9932 6.11528 10.8293C6.34679 9.66541 6.91824 8.59631 7.75735 7.7572C8.59647 6.91808 9.66556 6.34664 10.8295 6.11513C11.9933 5.88361 13.1997 6.00243 14.2961 6.45656C15.3924 6.91069 16.3295 7.67972 16.9888 8.66642C17.6481 9.65311 18 10.8132 18 11.9998C17.9982 13.5906 17.3655 15.1157 16.2407 16.2405C15.1158 17.3654 13.5907 17.9981 12 17.9998Z"
      fill="currentColor"
    />
  </g>
  <defs>
    <clipPath id="clip0_870_165">
      <rect
        width="16"
        height="16"
        fill="white"
        transform="translate(4 4)"
      />
    </clipPath>
  </defs>
</svg>