<svg width="1em" viewBox="0 0 1326 190" fill="none" xmlns="http://www.w3.org/2000/svg">
<path d="M711.549 -99.022L685.505 439.445L683.486 481.303L680.535 542.328L679.589 561.844L678.225 590.032H648.324L647.155 565.728L646.654 555.357L646.417 550.457L645.68 535.493L643.842 497.422L642.979 479.493L615 -99.022H711.549Z" fill="currentColor"/>
<path d="M1069.04 -99.022L870.731 373.896L807.117 525.61L791.916 561.844L789.091 568.581L770.368 561.774L768.308 561.023L761.78 558.642L761 558.364L761.139 557.905L762.545 553.394L770.368 528.116L772.581 520.961L776.131 509.519L797.832 439.445L964.636 -99.022H1069.04Z" fill="currentColor"/>
<path d="M1326 19V160.395L766.088 525.505L740.446 542.214L716.582 557.783L715.431 558.52L708.569 563L703.686 560.899L699.98 559.313L685.907 553.275L679.071 550.339L666 544.747L677.744 535.383L695.999 520.858L699.98 517.672L710.347 509.422L745.755 481.221L880.524 373.871L1326 19Z" fill="currentColor"/>
<path d="M572.036 558.364L571.256 558.642L564.728 561.023L562.668 561.774L551.782 565.728L543.945 568.581L525.919 525.61L462.304 373.896L264 -99.022H368.4L547.606 479.493L556.905 509.519L560.454 520.961L562.668 528.116L570.491 553.394L571.897 557.905L572.036 558.364Z" fill="currentColor"/>
<path d="M704 544.747L682.765 553.275L667.754 559.313L663.801 560.899L658.593 563L651.274 558.52L650.045 557.783L645.905 555.237L597.239 525.505L0 160.395V19L475.174 373.871L640.51 497.332L656.696 509.422L667.754 517.672L672.001 520.858L704 544.747Z" fill="currentColor"/>
<path d="M880.49 -41.2817L742.727 287.258L698.533 392.655L687.973 417.826L686.01 422.507L673.004 417.778L671.573 417.256L667.037 415.602L666.496 415.409L666.592 415.09L667.569 411.957L673.004 394.395L674.541 389.425L677.007 381.476L692.083 332.795L807.963 -41.2817H880.49Z" fill="currentColor"/>
<path d="M659.995 415.409L659.453 415.602L654.918 417.256L653.486 417.778L645.924 420.524L640.48 422.507L627.957 392.655L583.763 287.258L446 -41.2817H518.527L643.023 360.617L649.483 381.476L651.949 389.425L653.486 394.395L658.921 411.957L659.898 415.09L659.995 415.409Z" fill="currentColor"/>
<path d="M496.564 444.273L480.718 445.538L469.513 446.438L466.564 446.672L462.675 446.988L458.748 442.503L458.085 441.76L455.866 439.216L429.739 409.433L109.15 43.7745L138.392 -50L380.143 283.623L464.263 399.697L472.497 411.063L478.125 418.821L480.283 421.812L496.564 444.273Z" fill="currentColor"/>
<path d="M829.428 444.273L845.274 445.538L856.479 446.438L859.428 446.672L863.317 446.988L867.244 442.503L867.907 441.76L870.126 439.216L896.253 409.433L1216.84 43.7745L1187.6 -50L945.849 283.623L861.729 399.697L853.495 411.063L847.867 418.821L845.709 421.812L829.428 444.273Z" fill="currentColor"/>
</svg>
