<svg width="1em" viewBox="0 0 12 17" fill="none" xmlns="http://www.w3.org/2000/svg">
<path d="M8.5 1.66675H7.414C7.208 1.08475 6.652 0.666748 6 0.666748C5.348 0.666748 4.792 1.08475 4.585 1.66675H3.5C3.224 1.66675 3 1.89075 3 2.16675V4.16675C3 4.44275 3.224 4.66675 3.5 4.66675H8.5C8.776 4.66675 9 4.44275 9 4.16675V2.16675C9 1.89075 8.776 1.66675 8.5 1.66675Z" fill="#FAAC35"/>
<path d="M8.5 1.66675H7.414C7.208 1.08475 6.652 0.666748 6 0.666748C5.348 0.666748 4.792 1.08475 4.585 1.66675H3.5C3.224 1.66675 3 1.89075 3 2.16675V4.16675C3 4.44275 3.224 4.66675 3.5 4.66675H8.5C8.776 4.66675 9 4.44275 9 4.16675V2.16675C9 1.89075 8.776 1.66675 8.5 1.66675Z" fill="url(#paint0_linear_502_793)"/>
<path d="M11 2.66681H10V4.16681C10 4.99381 9.327 5.66681 8.5 5.66681H3.5C2.673 5.66681 2 4.99381 2 4.16681V2.66681H1C0.449 2.66681 0 3.11581 0 3.66681V15.6668C0 16.2278 0.439 16.6668 1 16.6668H11C11.561 16.6668 12 16.2278 12 15.6668V3.66681C12 3.10581 11.561 2.66681 11 2.66681ZM5.854 11.5208L3.854 13.5208C3.756 13.6178 3.628 13.6668 3.5 13.6668C3.372 13.6668 3.244 13.6178 3.146 13.5208L2.146 12.5208C1.951 12.3258 1.951 12.0088 2.146 11.8138C2.341 11.6188 2.658 11.6188 2.853 11.8138L3.5 12.4598L5.146 10.8138C5.341 10.6188 5.658 10.6188 5.853 10.8138C6.048 11.0088 6.049 11.3248 5.854 11.5208ZM5.854 7.52081L3.854 9.52081C3.756 9.61781 3.628 9.66681 3.5 9.66681C3.372 9.66681 3.244 9.61781 3.146 9.52081L2.146 8.52081C1.951 8.32581 1.951 8.00881 2.146 7.81381C2.341 7.61881 2.658 7.61881 2.853 7.81381L3.5 8.45981L5.146 6.81381C5.341 6.61881 5.658 6.61881 5.853 6.81381C6.048 7.00881 6.049 7.32481 5.854 7.52081ZM9.5 12.6668H7.5C7.224 12.6668 7 12.4428 7 12.1668C7 11.8908 7.224 11.6668 7.5 11.6668H9.5C9.776 11.6668 10 11.8908 10 12.1668C10 12.4428 9.776 12.6668 9.5 12.6668ZM9.5 8.66681H7.5C7.224 8.66681 7 8.44281 7 8.16681C7 7.89081 7.224 7.66681 7.5 7.66681H9.5C9.776 7.66681 10 7.89081 10 8.16681C10 8.44281 9.776 8.66681 9.5 8.66681Z" fill="#FAAC35"/>
<path d="M11 2.66681H10V4.16681C10 4.99381 9.327 5.66681 8.5 5.66681H3.5C2.673 5.66681 2 4.99381 2 4.16681V2.66681H1C0.449 2.66681 0 3.11581 0 3.66681V15.6668C0 16.2278 0.439 16.6668 1 16.6668H11C11.561 16.6668 12 16.2278 12 15.6668V3.66681C12 3.10581 11.561 2.66681 11 2.66681ZM5.854 11.5208L3.854 13.5208C3.756 13.6178 3.628 13.6668 3.5 13.6668C3.372 13.6668 3.244 13.6178 3.146 13.5208L2.146 12.5208C1.951 12.3258 1.951 12.0088 2.146 11.8138C2.341 11.6188 2.658 11.6188 2.853 11.8138L3.5 12.4598L5.146 10.8138C5.341 10.6188 5.658 10.6188 5.853 10.8138C6.048 11.0088 6.049 11.3248 5.854 11.5208ZM5.854 7.52081L3.854 9.52081C3.756 9.61781 3.628 9.66681 3.5 9.66681C3.372 9.66681 3.244 9.61781 3.146 9.52081L2.146 8.52081C1.951 8.32581 1.951 8.00881 2.146 7.81381C2.341 7.61881 2.658 7.61881 2.853 7.81381L3.5 8.45981L5.146 6.81381C5.341 6.61881 5.658 6.61881 5.853 6.81381C6.048 7.00881 6.049 7.32481 5.854 7.52081ZM9.5 12.6668H7.5C7.224 12.6668 7 12.4428 7 12.1668C7 11.8908 7.224 11.6668 7.5 11.6668H9.5C9.776 11.6668 10 11.8908 10 12.1668C10 12.4428 9.776 12.6668 9.5 12.6668ZM9.5 8.66681H7.5C7.224 8.66681 7 8.44281 7 8.16681C7 7.89081 7.224 7.66681 7.5 7.66681H9.5C9.776 7.66681 10 7.89081 10 8.16681C10 8.44281 9.776 8.66681 9.5 8.66681Z" fill="url(#paint1_linear_502_793)"/>
<defs>
<linearGradient id="paint0_linear_502_793" x1="6" y1="0.666748" x2="6" y2="3.46675" gradientUnits="userSpaceOnUse">
<stop stop-color="white"/>
<stop offset="0.463546" stop-color="#D5FDF6"/>
<stop offset="0.757033" stop-color="#BCFBF0"/>
<stop offset="1" stop-color="#76F7E1"/>
</linearGradient>
<linearGradient id="paint1_linear_502_793" x1="6" y1="2.66681" x2="6" y2="12.4668" gradientUnits="userSpaceOnUse">
<stop stop-color="white"/>
<stop offset="0.463546" stop-color="#D5FDF6"/>
<stop offset="0.757033" stop-color="#BCFBF0"/>
<stop offset="1" stop-color="#76F7E1"/>
</linearGradient>
</defs>
</svg>
