<svg width="1em" viewBox="0 0 25 25" fill="none" xmlns="http://www.w3.org/2000/svg">
<path d="M9.39849 10.2944V5.83789H0.368229C0.250953 5.83789 0.0945845 5.91607 0.0554925 6.03335C-0.0226916 6.15063 -0.0226916 6.2679 0.0164004 6.42427C1.15007 8.76979 3.69105 10.3335 6.54477 10.3335H9.39849V10.2944Z" fill="currentColor"/>
<path d="M22.2607 10.6855H15.5759V14.4384H17.296C19.6024 14.4384 21.7134 13.1874 22.6125 11.2719C22.6516 11.1547 22.6516 10.9983 22.5734 10.881C22.5343 10.7637 22.3779 10.6855 22.2607 10.6855Z" fill="currentColor"/>
<path d="M9.39879 10.6855H2.71405C2.59678 10.6855 2.44041 10.7637 2.40132 10.881C2.32313 10.9983 2.32313 11.1156 2.36223 11.2328C3.26134 13.1483 5.37231 14.3993 7.67874 14.3993H9.39879V10.6855Z" fill="currentColor"/>
<path d="M24.9189 6.03335C24.8407 5.91607 24.7235 5.83789 24.6062 5.83789H15.5759V10.2944H18.4296C21.2443 10.2944 23.8244 8.76979 24.958 6.38518C25.0362 6.2679 24.9971 6.15063 24.9189 6.03335Z" fill="currentColor"/>
<path d="M16.5898 15.2195C16.0426 14.8286 15.4171 14.5158 14.7916 14.3204V3.60913C14.7916 3.53095 14.7916 3.49186 14.7525 3.41367L12.8761 0.0517578V13.9685C12.6025 13.9685 12.3679 13.9685 12.0943 13.9685V0.0517578L10.2178 3.41367C10.1787 3.49186 10.1787 3.53095 10.1787 3.60913V14.3204C9.55327 14.5158 8.9278 14.8286 8.38051 15.2195C7.16866 16.0404 8.45869 17.8386 9.67055 16.9786C11.3515 15.7668 13.697 15.7668 15.378 16.9786C16.1207 17.5259 17.0589 17.0177 17.098 16.1968C17.098 15.8059 16.9417 15.454 16.5898 15.2195Z" fill="currentColor"/>
<path d="M14.4403 19.5198C14.4403 19.4807 14.4403 19.4807 14.4403 19.5198C14.7139 19.2462 14.8312 18.9335 14.8312 18.5425C14.8312 18.1516 14.6748 17.8389 14.4403 17.6043C14.4794 17.5652 14.5575 17.487 14.5966 17.448C13.9712 17.057 13.2284 16.8616 12.4857 16.8616C11.7429 16.8616 11.0002 17.057 10.3747 17.448C10.4138 17.5261 10.4529 17.5652 10.5311 17.6043C10.2574 17.878 10.1401 18.1907 10.1401 18.5425C10.1401 18.9335 10.2965 19.2462 10.5311 19.5198C10.2965 19.7544 10.1401 20.1062 10.1401 20.458C10.1401 20.8099 10.2574 21.1226 10.492 21.3572C10.2965 21.709 10.2183 22.0608 10.2183 22.4517C10.2183 23.7027 11.2347 24.7582 12.5248 24.7582C13.7757 24.7582 14.8312 23.7418 14.8312 22.4517C14.8312 22.0608 14.7139 21.6699 14.5575 21.3572C14.7921 21.1226 14.9094 20.7708 14.9094 20.458C14.8703 20.0671 14.7139 19.7544 14.4403 19.5198Z" fill="currentColor"/>
</svg>
