<svg width="1em" viewBox="0 0 13 13" xmlns="http://www.w3.org/2000/svg">
<path d="M6.5 0C2.91576 0 0 2.91576 0 6.5C0 10.0842 2.91576 13 6.5 13C10.0842 13 13 10.0842 13 6.5C13 2.91576 10.0842 0 6.5 0ZM8.89366 8.12768C9.10542 8.33953 9.10542 8.68181 8.89366 8.89366C8.78803 8.99929 8.64938 9.05235 8.51062 9.05235C8.37196 9.05235 8.23331 8.99929 8.12768 8.89366L6.5 7.26588L4.87232 8.89366C4.76669 8.99929 4.62804 9.05235 4.48938 9.05235C4.35062 9.05235 4.21197 8.99929 4.10634 8.89366C3.89458 8.68181 3.89458 8.33953 4.10634 8.12768L5.73412 6.5L4.10634 4.87232C3.89458 4.66047 3.89458 4.31819 4.10634 4.10634C4.31819 3.89458 4.66047 3.89458 4.87232 4.10634L6.5 5.73412L8.12768 4.10634C8.33953 3.89458 8.68181 3.89458 8.89366 4.10634C9.10542 4.31819 9.10542 4.66047 8.89366 4.87232L7.26588 6.5L8.89366 8.12768Z" fill="currentColor"/>
</svg>
