<svg width="1em" viewBox="0 0 34 34" fill="none" xmlns="http://www.w3.org/2000/svg">
<path d="M15.3953 13.4337L17.152 15.5843L18.9086 13.4337C19.1505 13.1446 19.3924 13 19.6342 13H21.6391C21.8046 13 21.9064 13.0482 21.9446 13.1446C21.9828 13.2289 21.951 13.3313 21.8492 13.4518L18.5268 17.4458L21.9064 21.5482C21.9955 21.6566 22.021 21.759 21.9828 21.8554C21.9446 21.9518 21.8492 22 21.6964 22H19.4242C19.1696 22 18.9277 21.8554 18.6986 21.5663L16.9037 19.3795L15.1089 21.5663C14.8798 21.8554 14.6443 22 14.4024 22H12.3211C12.1684 22 12.0665 21.9518 12.0156 21.8554C11.9774 21.759 12.0093 21.6566 12.1111 21.5482L15.5099 17.4458L12.2638 13.4699C12.162 13.3494 12.1302 13.241 12.1684 13.1446C12.2193 13.0482 12.3275 13 12.493 13H14.6697C14.9116 13 15.1534 13.1446 15.3953 13.4337Z" fill="currentColor"/>
<rect width="34" height="34" rx="17" fill="currentColor" fill-opacity="0.15"/>
</svg>
