<svg
  class="icon times-icon"
  width="1em"
  viewBox="0 0 10 8"
  fill="none"
  xmlns="http://www.w3.org/2000/svg"
>
  <path
    d="M3.067 0.385542L4.64801 2.29719L6.22901 0.385542C6.44668 0.128514 6.66436 0 6.88203 0H8.68644C8.83537 0 8.92703 0.0428381 8.9614 0.128514C8.99576 0.203481 8.96712 0.294512 8.87547 0.401607L5.88531 3.95181L8.92703 7.59839C9.00722 7.69478 9.03013 7.78581 8.99576 7.87149C8.9614 7.95716 8.87547 8 8.73799 8H6.693C6.46387 8 6.24619 7.87149 6.03998 7.61446L4.4246 5.67068L2.80923 7.61446C2.60301 7.87149 2.39107 8 2.17339 8H0.300248C0.162769 8 0.071117 7.95716 0.0252908 7.87149C-0.00907886 7.78581 0.0195625 7.69478 0.111215 7.59839L3.17011 3.95181L0.248693 0.417671C0.157041 0.310576 0.1284 0.21419 0.162769 0.128514C0.208595 0.0428381 0.305976 0 0.454911 0H2.41398C2.63165 0 2.84933 0.128514 3.067 0.385542Z"
    fill="currentColor"
  />
</svg>