<svg width="1em" viewBox="0 0 17 18" fill="none" xmlns="http://www.w3.org/2000/svg">
<path d="M8.5 0.5C3.80576 0.5 0 4.30576 0 9C0 13.6942 3.80576 17.5 8.5 17.5C13.1942 17.5 17 13.6942 17 9C17 4.30576 13.1942 0.5 8.5 0.5ZM10.9416 12.351C10.5708 12.8023 10.0881 13.1066 9.5249 13.2605C9.28004 13.327 9.16811 13.4564 9.1821 13.7117C9.19259 13.9636 9.1821 14.2119 9.1786 14.4638C9.1786 14.6877 9.06317 14.8066 8.8428 14.8136C8.69938 14.8171 8.55597 14.8206 8.41255 14.8206C8.28663 14.8206 8.1607 14.8206 8.03477 14.8171C7.79691 14.8136 7.68498 14.6772 7.68498 14.4463C7.68148 14.2644 7.68148 14.079 7.68148 13.8971C7.67798 13.4914 7.66399 13.4774 7.27572 13.4144C6.77901 13.334 6.2893 13.222 5.83457 13.0016C5.47778 12.8267 5.4393 12.7393 5.54074 12.3615C5.6177 12.0817 5.69465 11.8019 5.7821 11.5255C5.84506 11.3226 5.90453 11.2317 6.01296 11.2317C6.07593 11.2317 6.15638 11.2632 6.26482 11.3191C6.76852 11.5815 7.3037 11.7284 7.86687 11.7984C7.96132 11.8088 8.05576 11.8158 8.15021 11.8158C8.41255 11.8158 8.6679 11.7669 8.91625 11.6584C9.54239 11.3856 9.64033 10.6615 9.11214 10.2278C8.93375 10.0809 8.72737 9.97243 8.51399 9.87798C7.96482 9.63663 7.39465 9.45473 6.87696 9.14342C6.03745 8.63971 5.50576 7.95062 5.56872 6.92922C5.63868 5.7749 6.2928 5.05432 7.35267 4.66955C7.78992 4.51214 7.79342 4.51564 7.79342 4.06091C7.79342 3.907 7.78992 3.75309 7.79691 3.59568C7.80741 3.25288 7.86338 3.19342 8.20617 3.18292C8.24465 3.18292 8.28663 3.18292 8.3251 3.18292C8.39156 3.18292 8.45802 3.18292 8.52449 3.18292C8.55247 3.18292 8.58045 3.18292 8.60494 3.18292C9.25556 3.18292 9.25556 3.21091 9.25905 3.91399C9.26255 4.43169 9.26255 4.43169 9.77675 4.51214C10.172 4.5751 10.5463 4.69054 10.9101 4.85144C11.1095 4.93889 11.1864 5.07881 11.1235 5.29218C11.0325 5.607 10.9451 5.92531 10.8471 6.23663C10.7842 6.42551 10.7247 6.51296 10.6128 6.51296C10.5498 6.51296 10.4728 6.48848 10.3749 6.43951C9.87119 6.19465 9.343 6.07572 8.79033 6.07572C8.72037 6.07572 8.64691 6.07922 8.57695 6.08272C8.41255 6.09321 8.25165 6.1142 8.09774 6.18066C7.55206 6.41852 7.46461 7.02016 7.92984 7.39095C8.1642 7.57984 8.43354 7.71276 8.70988 7.82819C9.19259 8.02757 9.67531 8.21996 10.1335 8.47181C11.5747 9.27634 11.9665 11.1058 10.9416 12.351Z" fill="currentColor"/>
</svg>
