<svg width="1em" viewBox="0 0 38 38" fill="none" xmlns="http://www.w3.org/2000/svg">
<rect width="38" height="38" rx="19" fill="currentColor" fill-opacity="0.15"/>
<path d="M15.7642 11.8927C13.8519 11.8927 12.2961 13.5422 12.2961 15.5698C12.2961 17.5973 13.8519 19.2469 15.7642 19.2469C17.6766 19.2469 19.2324 17.5973 19.2324 15.5698C19.2324 13.5422 17.6766 11.8927 15.7642 11.8927Z" fill="currentColor"/>
<path d="M23.6491 12.419C23.6413 12.419 23.6333 12.419 23.6255 12.4191C22.823 12.4257 22.0733 12.7645 21.5148 13.3733C20.966 13.9712 20.6676 14.7601 20.6744 15.5945C20.6813 16.4288 20.9927 17.2126 21.5513 17.8015C22.1142 18.3949 22.86 18.7208 23.6536 18.7208C23.6616 18.7208 23.6696 18.7208 23.6776 18.7208C24.4801 18.7141 25.2297 18.3752 25.7883 17.7666C26.3371 17.1686 26.6355 16.3797 26.6287 15.5453C26.6144 13.8162 25.2801 12.419 23.6491 12.419Z" fill="currentColor"/>
<path d="M23.7951 19.3229H23.5072C22.166 19.3229 20.9421 19.8328 20.0181 20.6685C20.2493 20.8459 20.4693 21.0393 20.6779 21.2478C21.2932 21.8631 21.7763 22.5801 22.1141 23.3787C22.4184 24.0979 22.592 24.8557 22.6325 25.6361H29.0002V24.5276C29.0002 21.6579 26.6652 19.3229 23.7951 19.3229Z" fill="currentColor"/>
<path d="M21.5171 25.6361C21.4121 23.9442 20.5545 22.4561 19.2746 21.5024C18.3435 20.8084 17.1886 20.3976 15.9376 20.3976H15.591C12.5031 20.3977 10 22.9007 10 25.9886V26.6522H21.5283V25.9886C21.5283 25.8703 21.5246 25.7526 21.5171 25.6361Z" fill="currentColor"/>
</svg>
