<svg
  class="icon user-icon"
  width="1em"
  viewBox="0 0 12 14"
  fill="none"
  xmlns="http://www.w3.org/2000/svg"
>
  <path
    d="M5.53127 0.706543C3.70132 0.706543 2.21252 2.19533 2.21252 4.02529C2.21252 5.85525 3.70132 7.34404 5.53127 7.34404C7.36123 7.34404 8.85002 5.85525 8.85002 4.02529C8.85002 2.19533 7.36123 0.706543 5.53127 0.706543Z"
    fill="currentColor"
  />
  <path
    d="M9.66041 9.51217C8.75181 8.58961 7.5473 8.08154 6.26875 8.08154H4.79375C3.51522 8.08154 2.31069 8.58961 1.40209 9.51217C0.497935 10.4302 0 11.642 0 12.9245C0 13.1281 0.165102 13.2932 0.36875 13.2932H10.6938C10.8974 13.2932 11.0625 13.1281 11.0625 12.9245C11.0625 11.642 10.5646 10.4302 9.66041 9.51217Z"
    fill="currentColor"
  />
</svg>