<svg
  class="icon users-icon"
  width="1em"
  viewBox="0 0 16 14"
  fill="none"
  xmlns="http://www.w3.org/2000/svg"
>
  <path
    d="M4.85392 0.785645C3.24357 0.785645 1.93347 2.17471 1.93347 3.88209C1.93347 5.58947 3.24357 6.97854 4.85392 6.97854C6.46427 6.97854 7.7744 5.58947 7.7744 3.88209C7.7744 2.17471 6.4643 0.785645 4.85392 0.785645Z"
    fill="currentColor"
  />
  <path
    d="M11.4937 1.22876C11.4871 1.22876 11.4804 1.22879 11.4738 1.22882C10.798 1.23442 10.1667 1.51976 9.69637 2.03236C9.23425 2.53589 8.98296 3.20017 8.98875 3.9028C8.99456 4.60543 9.25678 5.26546 9.72712 5.76134C10.2012 6.26106 10.8292 6.53549 11.4975 6.53549C11.5042 6.53549 11.5109 6.53546 11.5177 6.53543C12.1935 6.52984 12.8247 6.24446 13.2951 5.7319C13.7572 5.22837 14.0085 4.56408 14.0027 3.86142C13.9907 2.40536 12.8671 1.22876 11.4937 1.22876Z"
    fill="currentColor"
  />
  <path
    d="M11.6169 7.04272H11.3744C10.245 7.04272 9.21441 7.4721 8.43628 8.17585C8.63097 8.32523 8.81628 8.48804 8.99191 8.66367C9.51003 9.18179 9.91691 9.78555 10.2013 10.458C10.4575 11.0637 10.6038 11.7018 10.6378 12.359H16.0001V11.4256C16.0001 9.00898 14.0338 7.04272 11.6169 7.04272Z"
    fill="currentColor"
  />
  <path
    d="M9.69847 12.3588C9.61003 10.9341 8.88784 9.68095 7.81002 8.87783C7.02596 8.29345 6.05346 7.94751 5.00002 7.94751H4.70814C2.10782 7.94754 0 10.0553 0 12.6557V13.2144H9.70784V12.6557C9.70784 12.556 9.70472 12.4569 9.69847 12.3588Z"
    fill="currentColor"
  />
</svg>