<svg width="1em" viewBox="0 0 38 38" fill="none" xmlns="http://www.w3.org/2000/svg">
<rect width="38" height="38" rx="19" fill="currentColor" fill-opacity="0.15"/>
<path d="M27.9999 23.8214V25.3392C27.9999 26.1765 27.3187 26.8571 26.482 26.8571H13.4286C12.0892 26.8571 11 25.7678 11 24.4285C11 24.4285 11 14.1163 11 14.1071C11 12.7678 12.0892 11.6786 13.4286 11.6786H24.6606C25.1639 11.6786 25.5713 12.0866 25.5713 12.5893C25.5713 13.092 25.1639 13.5 24.6606 13.5H13.4286C13.094 13.5 12.8214 13.772 12.8214 14.1071C12.8214 14.4423 13.094 14.7143 13.4286 14.7143H26.482C27.3187 14.7143 27.9999 15.3949 27.9999 16.2321V17.75H24.9642C23.2903 17.75 21.9285 19.1118 21.9285 20.7857C21.9285 22.4596 23.2903 23.8214 24.9642 23.8214H27.9999Z" fill="currentColor"/>
<path d="M28 18.9644V22.6072H24.9643C23.9583 22.6072 23.1429 21.7918 23.1429 20.7858C23.1429 19.7797 23.9583 18.9644 24.9643 18.9644H28Z" fill="currentColor"/>
</svg>
