<svg
  class="icon wallet-icon"
  width="1em"
  viewBox="0 0 14 14"
  fill="none"
  xmlns="http://www.w3.org/2000/svg"
>
  <path
    d="M14 10.9375V12.1875C14 12.877 13.439 13.4375 12.75 13.4375H2C0.897 13.4375 0 12.5405 0 11.4375C0 11.4375 0 2.945 0 2.9375C0 1.8345 0.897 0.9375 2 0.9375H11.25C11.6645 0.9375 12 1.2735 12 1.6875C12 2.1015 11.6645 2.4375 11.25 2.4375H2C1.7245 2.4375 1.5 2.6615 1.5 2.9375C1.5 3.2135 1.7245 3.4375 2 3.4375H12.75C13.439 3.4375 14 3.998 14 4.6875V5.9375H11.5C10.1215 5.9375 9 7.059 9 8.4375C9 9.816 10.1215 10.9375 11.5 10.9375H14Z"
    fill="currentColor"
  />
  <path
    d="M14.0001 6.9375V9.9375H11.5001C10.6716 9.9375 10.0001 9.266 10.0001 8.4375C10.0001 7.609 10.6716 6.9375 11.5001 6.9375H14.0001Z"
    fill="currentColor"
  />
</svg>