<svg width="1em" viewBox="0 0 13 7" fill="none" xmlns="http://www.w3.org/2000/svg">
<path d="M6.51956 5.1707C7.45155 5.1707 8.20708 4.41517 8.20708 3.48318C8.20708 2.55118 7.45155 1.79565 6.51956 1.79565C5.58756 1.79565 4.83203 2.55118 4.83203 3.48318C4.83203 4.41517 5.58756 5.1707 6.51956 5.1707Z" fill="currentColor"/>
<path d="M12.8518 3.1484C12.7367 3.01999 9.9679 0 6.49994 0C3.03199 0 0.2632 3.01999 0.148065 3.1484C0.0196555 3.29192 0.0196555 3.50889 0.148065 3.65241C0.2632 3.78082 3.03204 6.80081 6.49994 6.80081C9.96785 6.80081 12.7367 3.78082 12.8518 3.65241C12.9802 3.50889 12.9802 3.29192 12.8518 3.1484ZM6.49994 6.04516C5.04178 6.04516 3.85519 4.85857 3.85519 3.4004C3.85519 1.94224 5.04178 0.755645 6.49994 0.755645C7.95811 0.755645 9.1447 1.94224 9.1447 3.4004C9.1447 4.85857 7.95811 6.04516 6.49994 6.04516Z" fill="currentColor"/>
<path d="M6.87778 2.6447C6.87778 2.26461 7.06646 1.93024 7.35351 1.72457C7.09593 1.59271 6.80863 1.51123 6.49995 1.51123C5.45835 1.51123 4.61084 2.35874 4.61084 3.40034C4.61084 4.44195 5.45835 5.28946 6.49995 5.28946C7.43252 5.28946 8.20439 4.60852 8.35688 3.71877C7.59604 3.96373 6.87778 3.3883 6.87778 2.6447Z" fill="currentColor"/>
</svg>
