<svg
  class="icon wired-gamepad-icon"
  width="1em"
  viewBox="0 0 32 32"
  xmlns="http://www.w3.org/2000/svg"
>
  <path
    d="M2.87569 32C4.40738 32 6.22194 30.863 8.42562 28.5229C9.70919 27.1578 11.5414 26.3751 13.3413 26.3751H18.6587C20.4586 26.3751 22.2908 27.1578 23.5744 28.5229C25.7781 30.8629 27.5926 32 29.1243 32C30.1333 32 30.9544 31.4214 31.4351 30.3713C31.7958 29.5848 32 28.5183 32 27.2036C32 21.7681 28.4832 11.3127 23.0999 11.3127C21.4739 11.3127 20.715 11.8309 20.0448 12.2878C19.5201 12.6457 19.0089 12.9807 18.0326 13.1582C18.4562 12.4926 18.8126 11.6929 18.8126 10.844C18.8126 8.83623 16.8424 7.05369 16.6189 6.8587C16.2152 6.50258 15.0626 5.20228 15.0626 4.21904C15.0626 3.2358 16.2152 1.99801 16.6189 1.64189C17.0062 1.30039 17.0447 0.708088 16.7032 0.319905C16.3626 -0.0710275 15.7712 -0.107652 15.383 0.232031C15.1577 0.428841 13.1876 2.21138 13.1876 4.2191C13.1876 6.22683 15.1578 8.07187 15.3812 8.26687C15.7849 8.62299 16.9376 9.86078 16.9376 10.844C16.9376 11.6734 16.1208 12.6781 15.6218 13.1877H14.1708C13.0062 13.0046 12.4954 12.6567 11.9552 12.2878C11.2851 11.8309 10.5261 11.3128 8.90012 11.3128C3.51681 11.3128 0 21.7682 0 27.2036C0 31.5322 2.01781 32 2.87569 32ZM23.5 22.5626C22.9823 22.5626 22.5625 22.1429 22.5625 21.6251C22.5625 21.1074 22.9823 20.6876 23.5 20.6876C24.0177 20.6876 24.4375 21.1074 24.4375 21.6251C24.4375 22.1429 24.0177 22.5626 23.5 22.5626ZM25.375 18.8127C25.8927 18.8127 26.3125 19.2324 26.3125 19.7502C26.3125 20.2679 25.8927 20.6876 25.375 20.6876C24.8573 20.6876 24.4375 20.2679 24.4375 19.7502C24.4375 19.2324 24.8573 18.8127 25.375 18.8127ZM23.5 16.9377C24.0177 16.9377 24.4375 17.3574 24.4375 17.8752C24.4375 18.3929 24.0177 18.8127 23.5 18.8127C22.9823 18.8127 22.5625 18.3929 22.5625 17.8752C22.5625 17.3574 22.9823 16.9377 23.5 16.9377ZM21.625 18.8127C22.1427 18.8127 22.5625 19.2324 22.5625 19.7502C22.5625 20.2679 22.1427 20.6876 21.625 20.6876C21.1073 20.6876 20.6875 20.2679 20.6875 19.7502C20.6875 19.2324 21.1073 18.8127 21.625 18.8127ZM14.125 18.8127H17.875C18.3932 18.8127 18.8125 19.232 18.8125 19.7502C18.8125 20.2683 18.3932 20.6876 17.875 20.6876H14.125C13.6068 20.6876 13.1875 20.2683 13.1875 19.7502C13.1875 19.232 13.6068 18.8127 14.125 18.8127ZM6.625 18.8127H7.5625V17.8752C7.5625 17.357 7.98181 16.9377 8.5 16.9377C9.01819 16.9377 9.4375 17.357 9.4375 17.8752V18.8127H10.375C10.8932 18.8127 11.3125 19.232 11.3125 19.7502C11.3125 20.2683 10.8932 20.6876 10.375 20.6876H9.4375V21.6251C9.4375 22.1433 9.01819 22.5626 8.5 22.5626C7.98181 22.5626 7.5625 22.1433 7.5625 21.6251V20.6876H6.625C6.10681 20.6876 5.6875 20.2683 5.6875 19.7502C5.6875 19.232 6.10681 18.8127 6.625 18.8127Z"
    fill="currentColor"
  />
</svg>