<svg width="1em" viewBox="0 0 52 46" fill="none" xmlns="http://www.w3.org/2000/svg">
<path d="M10.6667 0H41.3334C46.9556 0 51.5556 4.6 51.5556 10.2222C51.5556 14.5667 49 18.1444 45.1667 19.6778V10.2222C45.1667 9.2 44.6556 8.17778 44.1445 7.41111C43.6334 6.64444 42.3556 6.38889 41.3334 6.38889H10.6667C9.64446 6.38889 8.62224 6.9 7.85557 7.41111C7.0889 7.92222 6.83335 9.2 6.83335 10.2222V19.6778C3.00001 18.1444 0.444458 14.5667 0.444458 10.2222C0.444458 4.6 5.04446 0 10.6667 0Z" fill="currentColor"/>
<path fill-rule="evenodd" clip-rule="evenodd" d="M41.3333 10.2222V40.8888C41.3333 43.7 39.0333 46 36.2222 46H15.7777C12.9666 46 10.6666 43.7 10.6666 40.8888V10.2222H41.3333ZM22.1666 29.3888L23.9555 31.1777V20.4444C23.9555 19.4222 24.7222 18.3999 26 18.3999C27.2777 18.3999 28.0444 19.1666 28.0444 20.4444V31.1777L29.8333 29.3888C30.6 28.6222 31.8777 28.6222 32.6444 29.3888C33.4111 30.1555 33.4111 31.4333 32.6444 32.1999L29.3222 35.5222C27.5333 37.3111 24.7222 37.3111 22.9333 35.5222L19.6111 32.1999C18.8444 31.4333 18.8444 30.1555 19.6111 29.3888C20.3777 28.6222 21.4 28.6222 22.1666 29.3888Z" fill="currentColor"/>
</svg>
